<svg id="Capa_1" enable-background="new 0 0 512.003 512.003" height="512" viewBox="0 0 512.003 512.003" width="512" xmlns="http://www.w3.org/2000/svg"><g><path d="m377.001 15.995h-60c-8.401 0-15 6.599-15 15v90c0 8.399 6.599 15 15 15h60c8.401 0 15-6.601 15-15v-90c0-8.401-6.599-15-15-15z" fill="#97de3d"/><path d="m392.001 30.995v90c0 8.399-6.599 15-15 15h-30v-120h30c8.401 0 15 6.599 15 15z" fill="#59c36a"/><path d="m195.001 15.995h-60c-8.401 0-15 6.599-15 15v90c0 8.399 6.599 15 15 15h60c8.401 0 15-6.601 15-15v-90c0-8.401-6.599-15-15-15z" fill="#97de3d"/><path d="m210.001 30.995v90c0 8.399-6.599 15-15 15h-30v-120h30c8.401 0 15 6.599 15 15z" fill="#59c36a"/><path d="m271.001 180.995v210c0 8.401-6.599 15-15 15s-15-6.599-15-15v-210c0-8.401 6.599-15 15-15s15 6.599 15 15z" fill="#dfe7f4"/><path d="m271.001 180.995v210c0 8.401-6.599 15-15 15v-240c8.401 0 15 6.599 15 15z" fill="#c7cfe1"/><path d="m120.001 375.995h-45-45c-8.291 0-15 6.709-15 15s6.709 15 15 15h45 45c8.291 0 15-6.709 15-15s-6.709-15-15-15z" fill="#dfe7f4"/><path d="m135.001 390.995c0-8.291-6.709-15-15-15h-45v30h45c8.291 0 15-6.709 15-15z" fill="#c7cfe1"/><g><path d="m12.54 495.79c-8.174-1.362-13.696-9.097-12.334-17.256l37.705-226.216c1.348-8.174 9.023-13.755 17.256-12.334 8.174 1.362 13.696 9.097 12.334 17.256l-37.705 226.216c-1.378 8.317-9.321 13.726-17.256 12.334z" fill="#dfe7f4"/></g><g><path d="m120.206 483.456-37.705-226.216c-1.362-8.159 4.16-15.894 12.334-17.256 8.174-1.406 15.908 4.16 17.256 12.334l37.705 226.216c1.362 8.159-4.16 15.894-12.334 17.256-7.949 1.394-15.878-4.022-17.256-12.334z" fill="#c7cfe1"/></g><path d="m120.001 225.995h-45-45c-16.569 0-30 13.431-30 30s13.431 30 30 30h45 45c16.569 0 30-13.431 30-30s-13.43-30-30-30z" fill="#ff7b4a"/><path d="m150.001 255.995c0-16.569-13.431-30-30-30h-45v60h45c16.57 0 30-13.431 30-30z" fill="#ff435b"/><path d="m482.001 375.995h-45-45c-8.291 0-15 6.709-15 15s6.709 15 15 15h45 45c8.291 0 15-6.709 15-15s-6.709-15-15-15z" fill="#dfe7f4"/><path d="m497.001 390.995c0-8.291-6.709-15-15-15h-45v30h45c8.291 0 15-6.709 15-15z" fill="#c7cfe1"/><g><path d="m374.54 495.79c-8.174-1.362-13.696-9.097-12.334-17.256l37.705-226.216c1.348-8.174 9.023-13.755 17.256-12.334 8.174 1.362 13.696 9.097 12.334 17.256l-37.705 226.216c-1.378 8.317-9.321 13.726-17.256 12.334z" fill="#dfe7f4"/></g><g><path d="m482.206 483.456-37.705-226.216c-1.362-8.159 4.16-15.894 12.334-17.256 8.174-1.406 15.908 4.16 17.256 12.334l37.705 226.216c1.362 8.159-4.16 15.894-12.334 17.256-7.949 1.394-15.879-4.022-17.256-12.334z" fill="#c7cfe1"/></g><path d="m482.001 225.995h-45-45c-16.569 0-30 13.431-30 30s13.431 30 30 30h45 45c16.569 0 30-13.431 30-30s-13.43-30-30-30z" fill="#ff7b4a"/><path d="m512.001 255.995c0-16.569-13.431-30-30-30h-45v60h45c16.57 0 30-13.431 30-30z" fill="#ff435b"/><path d="m452.001 120.995c0 41.4-33.6 75-75 75h-242c-41.4 0-75-33.6-75-75z" fill="#704c55"/><path d="m452.001 120.995c0 41.4-33.6 75-75 75h-121v-75z" fill="#5b362a"/><path d="m482.001 120.995c0 8.401-6.599 15-15 15h-422c-8.401 0-15-6.599-15-15s6.599-15 15-15h422c8.401 0 15 6.599 15 15z" fill="#5b362a"/><path d="m482.001 120.995c0 8.401-6.599 15-15 15h-211v-30h211c8.401 0 15 6.599 15 15z" fill="#38211a"/><path d="m256.001 375.995c-41.4 0-76 33.6-76 75v30c0 8.401 6.599 15 15 15h122c8.401 0 15-6.599 15-15v-30c0-41.4-34.599-75-76-75z" fill="#704c55"/><path d="m332.001 450.995v30c0 8.401-6.599 15-15 15h-61v-120c41.401 0 76 33.6 76 75z" fill="#5b362a"/></g></svg>