<svg id="Capa_1" enable-background="new 0 0 512 512" height="512" viewBox="0 0 512 512" width="512" xmlns="http://www.w3.org/2000/svg"><g><path d="m418.746 121-42.746-61h-120-120l-42.746 61c-1.304 9.421-2.254 19.288-2.254 30 0 26.045 8.569 55.356 25.415 87.056 22.954 43.813 34.585 88.711 34.585 133.447v125.497c0 8.291 6.709 15 15 15h90 90c8.291 0 15-6.709 15-15v-125.497c0-44.736 11.631-89.634 34.541-133.359 16.89-31.788 25.459-61.099 25.459-87.144 0-10.712-.95-20.579-2.254-30z" fill="#fed843"/><path d="m361 497v-125.497c0-44.736 11.631-89.634 34.541-133.359 16.89-31.788 25.459-61.099 25.459-87.144 0-10.712-.95-20.579-2.254-30l-42.746-61h-120v452h90c8.291 0 15-6.709 15-15z" fill="#fabe2c"/><path d="m390.722 40.005c-2.491-22.471-21.592-40.005-44.722-40.005-11.514 0-22.031 4.351-30 11.484-15.938-14.268-44.063-14.268-60 0-15.938-14.268-44.063-14.268-60 0-7.969-7.133-18.486-11.484-30-11.484-23.13 0-42.231 17.534-44.722 40.005-6.432 9.999-22.296 39.586-28.024 80.995h72.746c8.401 0 15 6.599 15 15v15c0 16.5 13.5 30 30 30s30-13.5 30-30v-15c0-8.401 6.599-15 15-15s15 6.599 15 15v75c0 16.5 13.5 30 30 30s30-13.5 30-30v-75c0-8.401 6.599-15 15-15h72.746c-5.728-41.409-21.592-70.996-28.024-80.995z" fill="#f0f7ff"/><path d="m271 136v75c0 16.5 13.5 30 30 30s30-13.5 30-30v-75c0-8.401 6.599-15 15-15h72.746c-5.728-41.409-21.592-70.996-28.024-80.995-2.491-22.471-21.592-40.005-44.722-40.005-11.514 0-22.031 4.351-30 11.484-15.938-14.268-44.063-14.268-60 0v109.516c8.401 0 15 6.599 15 15z" fill="#dfe7f4"/></g></svg>