<svg id="Capa_1" enable-background="new 0 0 512 512" height="512" viewBox="0 0 512 512" width="512" xmlns="http://www.w3.org/2000/svg"><g><path d="m106 30h-45v211h45 45v-211z" fill="#59c36a"/><path d="m106 30h45v211h-45z" fill="#00a66c"/><path d="m106 181c-49.629 0-90 40.371-90 90v30l47.563 30h42.437 42.437l47.563-30v-30c0-49.629-40.371-90-90-90z" fill="#97de3d"/><path d="m106 391h-56.841l-33.159 30v76c0 8.291 6.709 15 15 15h75 75c8.291 0 15-6.709 15-15v-76l-34.579-30z" fill="#97de3d"/><path d="m196 301v-30c0-49.629-40.371-90-90-90v150h42.437z" fill="#59c36a"/><path d="m196 497v-76l-34.579-30h-55.421v121h75c8.291 0 15-6.709 15-15z" fill="#59c36a"/><path d="m136 0h-30-30c-16.569 0-30 13.431-30 30v15c0 8.284 6.716 15 15 15h45 45c8.284 0 15-6.716 15-15v-15c0-16.569-13.431-30-30-30z" fill="#704c55"/><path d="m166 45v-15c0-16.569-13.431-30-30-30h-30v60h45c8.284 0 15-6.716 15-15z" fill="#5b362a"/><path d="m148.437 301c-6.196-17.461-22.881-30-42.437-30s-36.24 12.539-42.437 30h-47.563v120h90 90v-120z" fill="#fed843"/><path d="m196 301h-47.563c-6.196-17.461-22.881-30-42.437-30v150h90z" fill="#fabe2c"/><path d="m446.928 395.731c-.703-.761-70.928-76.289-70.928-139.731 0-8.291-6.709-15-15-15s-15 6.709-15 15c0 63.442-70.225 138.97-70.928 139.731-5.669 6.035-5.376 15.527.659 21.196 6.024 5.66 15.493 5.398 21.196-.645 2.309-2.466 41.808-45.042 64.072-96.683 22.264 51.641 61.763 94.217 64.072 96.683 5.696 6.033 15.163 6.312 21.196.645 6.037-5.668 6.33-15.16.661-21.196z" fill="#97de3d"/><path d="m446.269 416.928c6.035-5.669 6.328-15.161.659-21.196-.703-.762-70.928-76.29-70.928-139.732 0-8.291-6.709-15-15-15v78.6c22.264 51.641 61.763 94.217 64.072 96.683 5.696 6.034 15.164 6.312 21.197.645z" fill="#59c36a"/><path d="m286 512c-33.091 0-60-27.909-60-61s26.909-60 60-60 60 26.909 60 60-26.909 61-60 61z" fill="#ff7b4a"/><path d="m436 512c-33.091 0-60-27.909-60-61s26.909-60 60-60 60 26.909 60 60-26.909 61-60 61z" fill="#ff435b"/></g></svg>