<svg id="Capa_1" enable-background="new 0 0 512 512" height="512" viewBox="0 0 512 512" width="512" xmlns="http://www.w3.org/2000/svg"><g><g><path d="m421 90h-60v60h60c8.291 0 15 6.709 15 15v212c0 8.291-6.709 15-15 15h-60v60h60c41.353 0 75-33.647 75-75v-212c0-41.353-33.647-75-75-75z" fill="#c7cfe1"/></g><path d="m376 452v-362l-45-30h-120-120l-45 30v362c-16.569 0-30 13.431-30 30s13.431 30 30 30h165 165c16.569 0 30-13.431 30-30s-13.431-30-30-30z" fill="#fed843"/><path d="m406 482c0-16.569-13.431-30-30-30v-362l-45-30h-120v452h165c16.569 0 30-13.431 30-30z" fill="#fabe2c"/><path d="m331 0c-11.567 0-22.02 4.508-30 11.704-7.98-7.196-18.433-11.704-30-11.704s-22.02 4.508-30 11.704c-7.98-7.196-18.433-11.704-30-11.704s-22.02 4.508-30 11.704c-7.98-7.196-18.433-11.704-30-11.704s-22.02 4.508-30 11.704c-7.98-7.196-18.433-11.704-30-11.704-24.814 0-45 20.186-45 45v45h30c8.401 0 15 6.599 15 15v45c0 16.5 13.5 30 30 30s30-13.5 30-30v-45c0-8.401 6.599-15 15-15s15 6.599 15 15v135c0 16.5 13.5 30 30 30s30-13.5 30-30v-135c0-8.401 6.599-15 15-15h120v-45c0-24.814-20.186-45-45-45z" fill="#f0f7ff"/><path d="m241 240v-135c0-8.401 6.599-15 15-15h120v-45c0-24.814-20.186-45-45-45-11.567 0-22.02 4.508-30 11.704-7.98-7.196-18.433-11.704-30-11.704s-22.02 4.508-30 11.704c-7.98-7.196-18.433-11.704-30-11.704v270c16.5 0 30-13.5 30-30z" fill="#dfe7f4"/></g></svg>