<svg id="Capa_1" enable-background="new 0 0 511.92 511.92" height="512" viewBox="0 0 511.92 511.92" width="512" xmlns="http://www.w3.org/2000/svg"><g><path d="m255.995.02c-107.047 1.518-192.274 93.302-195 195.9-1.659 62.481 26.034 116.219 76.509 154.893 34.409 26.338 70.62 55.917 101.836 90.106l5.566 6.108c2.842 3.105 6.855 4.893 11.074 4.893h.015c4.219 0 8.232-1.772 11.074-4.878l5.757-6.313c31.304-34.292 61.699-62.318 92.915-83.603 53.378-36.416 85.254-96.68 85.254-161.206 0-109.156-85.948-197.447-195-195.9z" fill="#ff7b4a"/><path d="m272.826 440.729c31.304-34.292 61.699-62.318 92.915-83.603 53.378-36.416 85.254-96.68 85.254-161.206 0-109.156-85.948-197.447-195-195.9v451.9c4.219 0 8.232-1.772 11.074-4.878z" fill="#ff435b"/><path d="m390.995 481.92h-135-135c-8.291 0-15 6.709-15 15s6.709 15 15 15h135 135c8.291 0 15-6.709 15-15s-6.709-15-15-15z" fill="#97de3d"/><path d="m405.995 496.92c0-8.291-6.709-15-15-15h-135v30h135c8.291 0 15-6.709 15-15z" fill="#59c36a"/><g><path d="m330.995 270.92h-15c-8.291 0-15-6.709-15-15s6.709-15 15-15h15c16.538 0 30-13.462 30-30s-13.462-30-30-30h-15c-8.291 0-15-6.709-15-15s6.709-15 15-15h15c33.091 0 60 26.909 60 60s-26.909 60-60 60z" fill="#c7cfe1"/><path d="m315.995 89.92h-60-60c-8.291 0-15 6.709-15 15v46l30 30h45 45l30-30v-46c0-8.291-6.709-15-15-15z" fill="#f0f7ff"/><path d="m330.995 150.92v-46c0-8.291-6.709-15-15-15h-60v91h45z" fill="#dfe7f4"/><path d="m255.995 150.92h-75v135c0 8.291 6.709 15 15 15h60 60c8.291 0 15-6.709 15-15v-135z" fill="#fed843"/><path d="m330.995 285.92v-135h-75v150h60c8.291 0 15-6.709 15-15z" fill="#fabe2c"/></g></g></svg>