<svg id="Capa_1" enable-background="new 0 0 512 512" height="512" viewBox="0 0 512 512" width="512" xmlns="http://www.w3.org/2000/svg"><g><path d="m482 150h-226-226l-30 30v317c0 8.291 6.709 15 15 15h241 241c8.291 0 15-6.709 15-15v-317z" fill="#97de3d"/><path d="m512 497v-317l-30-30h-226v362h241c8.291 0 15-6.709 15-15z" fill="#59c36a"/><g><path d="m331 421h-15c-8.291 0-15-6.709-15-15s6.709-15 15-15h15c16.538 0 30-13.462 30-30s-13.462-30-30-30h-15c-8.291 0-15-6.709-15-15s6.709-15 15-15h15c33.091 0 60 26.909 60 60s-26.909 60-60 60z" fill="#c7cfe1"/><path d="m316 241h-60-60c-8.291 0-15 6.709-15 15v45l30 30h45 45l30-30v-45c0-8.291-6.709-15-15-15z" fill="#f0f7ff"/><path d="m331 301v-45c0-8.291-6.709-15-15-15h-60v90h45z" fill="#dfe7f4"/><path d="m256 301h-75v135c0 8.291 6.709 15 15 15h60 60c8.291 0 15-6.709 15-15v-135z" fill="#fabe2c"/><path d="m331 436v-135h-75v150h60c8.291 0 15-6.709 15-15z" fill="#ff9100"/></g><path d="m497 60h-134.585l-14.68-9-15.884 9h-75.851-133.585l-14.363-9-16.201 9h-76.851c-8.291 0-15 6.709-15 15v105h256 256v-105c0-8.291-6.709-15-15-15z" fill="#ff7b4a"/><path d="m512 75c0-8.291-6.709-15-15-15h-134.585l-14.68-9-15.884 9h-75.851v120h256z" fill="#ff435b"/><path d="m376 0c-22.546 0-40.203 24.932-44.149 60h30.564c2.957-19.202 10.576-30 13.585-30 8.1 0 15 29.952 15 45 0 29.033-11.265 45-15 45-8.291 0-15 6.709-15 15s6.709 15 15 15c25.649 0 45-32.241 45-75 0-32.914-14.143-75-45-75z" fill="#38211a"/><path d="m136 0c-22.546 0-40.203 24.932-44.149 60h30.564c2.957-19.202 10.576-30 13.585-30 8.1 0 15 29.952 15 45 0 29.033-11.265 45-15 45-8.291 0-15 6.709-15 15s6.709 15 15 15c25.649 0 45-32.241 45-75 0-32.914-14.143-75-45-75z" fill="#5b362a"/></g></svg>