<svg id="Capa_1" enable-background="new 0 0 512 512" height="512" viewBox="0 0 512 512" width="512" xmlns="http://www.w3.org/2000/svg"><g><path d="m466 0h-165l-135 195-135 195v107c0 8.291 6.709 15 15 15h120 300c8.291 0 15-6.709 15-15v-482c0-8.291-6.709-15-15-15z" fill="#ff7b4a"/><path d="m481 497v-482c0-8.291-6.709-15-15-15h-165l-135 195v317h300c8.291 0 15-6.709 15-15z" fill="#ff435b"/><path d="m166 0h-120c-8.401 0-15 6.599-15 15v375h135 120c8.401 0 15-6.599 15-15v-375z" fill="#f0f7ff"/><path d="m301 0v375c0 8.401-6.599 15-15 15h-120v-390z" fill="#dfe7f4"/><path d="m61 270v90h30l15-30 15 30h30l15-30 15 30h30l15-30 15 30h30v-90h-105z" fill="#704c55"/><path d="m61 150v90h30l15-30 15 30h30l15-30 15 30h30l15-30 15 30h30v-90h-105z" fill="#704c55"/><path d="m166 30h-105v90h30l15-30 15 30h30l15-30 15 30h30l15-30 15 30h30v-90z" fill="#704c55"/><path d="m271 30v90h-30l-15-30-15 30h-30l-15-30v-60z" fill="#5b362a"/><path d="m166 150h105v90h-30l-15-30-15 30h-30l-15-30z" fill="#5b362a"/><path d="m166 270h105v90h-30l-15-30-15 30h-30l-15-30z" fill="#5b362a"/><path d="m106 300c-8.291 0-15 6.709-15 15v45h30v-45c0-8.291-6.709-15-15-15z" fill="#fed843"/><path d="m226 300c-8.291 0-15 6.709-15 15v45h30v-45c0-8.291-6.709-15-15-15z" fill="#fabe2c"/><path d="m421 150h-60c-8.291 0-15-6.709-15-15v-60c0-8.291 6.709-15 15-15h60c8.291 0 15 6.709 15 15v60c0 8.291-6.709 15-15 15z" fill="#dfe7f4"/><g fill="#38211a"><circle cx="360.999" cy="194.999" r="15"/><circle cx="420.999" cy="194.999" r="15"/><circle cx="360.999" cy="254.999" r="15"/><circle cx="420.999" cy="254.999" r="15"/><circle cx="360.999" cy="314.999" r="15"/><circle cx="420.999" cy="314.999" r="15"/></g><path d="m106 180c-8.291 0-15 6.709-15 15v45h30v-45c0-8.291-6.709-15-15-15z" fill="#97de3d"/><path d="m226 180c-8.291 0-15 6.709-15 15v45h30v-45c0-8.291-6.709-15-15-15z" fill="#59c36a"/><path d="m106 60c-8.291 0-15 6.709-15 15v45h30v-45c0-8.291-6.709-15-15-15z" fill="#fed843"/><path d="m226 60c-8.291 0-15 6.709-15 15v45h30v-45c0-8.291-6.709-15-15-15z" fill="#fabe2c"/><path d="m166 60c-8.401 0-15 6.599-15 15v45h15 15v-45c0-8.401-6.599-15-15-15z" fill="#97de3d"/><path d="m181 120h-15v-60c8.401 0 15 6.599 15 15z" fill="#59c36a"/><path d="m166 180c-8.401 0-15 6.599-15 15v45h15 15v-45c0-8.401-6.599-15-15-15z" fill="#fed843"/><path d="m181 240h-15v-60c8.401 0 15 6.599 15 15z" fill="#fabe2c"/><path d="m166 300c-8.401 0-15 6.599-15 15v45h15 15v-45c0-8.401-6.599-15-15-15z" fill="#97de3d"/><path d="m181 360h-15v-60c8.401 0 15 6.599 15 15z" fill="#59c36a"/><path d="m256 420h-90-60c-8.401 0-15 6.599-15 15s6.599 15 15 15h60 90c8.401 0 15-6.599 15-15s-6.599-15-15-15z" fill="#5b362a"/><path d="m271 435c0 8.401-6.599 15-15 15h-90v-30h90c8.401 0 15 6.599 15 15z" fill="#38211a"/></g></svg>