<svg id="Capa_1" enable-background="new 0 0 512 512" height="512" viewBox="0 0 512 512" width="512" xmlns="http://www.w3.org/2000/svg"><g><path d="m256 227h-226v270h226 226v-270z" fill="#f0f7ff"/><path d="m256 227h226v270h-226z" fill="#dfe7f4"/><path d="m421 302h-150c-8.291 0-15 6.709-15 15v120c0 8.291 6.709 15 15 15h150c8.291 0 15-6.709 15-15v-120c0-8.291-6.709-15-15-15z" fill="#5b362a"/><g><path d="m91 497h120v-135l-58.895-30-61.105 30z" fill="#704c55"/><path d="m151 302c-33.091 0-60 26.909-60 60h120c0-33.091-26.909-60-60-60z" fill="#5b362a"/></g><path d="m497 482h-241-241c-8.291 0-15 6.709-15 15s6.709 15 15 15h241 241c8.291 0 15-6.709 15-15s-6.709-15-15-15z" fill="#97de3d"/><path d="m512 497c0-8.291-6.709-15-15-15h-241v30h241c8.291 0 15-6.709 15-15z" fill="#59c36a"/><path d="m286 332h120v30h-120z" fill="#c7cfe1"/><path d="m286 392h120v30h-120z" fill="#c7cfe1"/><path d="m511.546 223.367-29.546-102.367-30-30h-196-196l-30 30-29.546 102.367c-1.128 4.482-.117 9.229 2.725 12.861 2.842 3.648 7.207 5.772 11.821 5.772h241 241c4.614 0 8.979-2.124 11.821-5.771 2.842-3.633 3.853-8.379 2.725-12.862z" fill="#704c55"/><path d="m508.821 236.229c2.842-3.633 3.853-8.379 2.725-12.861l-29.546-102.368-30-30h-196v151h241c4.614 0 8.979-2.124 11.821-5.771z" fill="#5b362a"/><path d="m467 61h-106v-15c0-8.291-6.709-15-15-15h-30.308c-14.091-18.691-36.24-31-59.692-31s-45.601 12.309-59.692 31h-30.308c-8.291 0-15 6.709-15 15v15h-106c-8.284 0-15 6.716-15 15v45h121v15c0 8.291 6.709 15 15 15h30.308c14.092 18.691 36.24 30 59.692 30s45.601-11.309 59.692-30h30.308c8.291 0 15-6.709 15-15v-15h121v-45c0-8.284-6.716-15-15-15z" fill="#fed843"/><path d="m315.692 151h30.308c8.291 0 15-6.709 15-15v-15h121v-45c0-8.284-6.716-15-15-15h-106v-15c0-8.291-6.709-15-15-15h-30.308c-14.091-18.691-36.24-31-59.692-31v181c23.452 0 45.601-11.309 59.692-30z" fill="#fabe2c"/></g></svg>