<svg id="Capa_1" enable-background="new 0 0 512 512" height="512" viewBox="0 0 512 512" width="512" xmlns="http://www.w3.org/2000/svg"><g><path d="m467 286.001h-49.195l-19.239 32.283 9.24 27.717 12.433 37.297 37.568 22.703h9.193c24.814 0 45-20.186 45-45v-15-15c0-24.815-20.186-45-45-45z" fill="#ff7b4a"/><path d="m457.806 406.001h9.194c24.814 0 45-20.186 45-45v-15h-104.194l12.433 37.297z" fill="#ff435b"/><g fill="#c7cfe1"><path d="m377 166.001h-60c-24.814 0-45-20.186-45-45 0-8.291-6.709-15-15-15s-15 6.709-15 15c0 41.353 33.647 75 75 75h60c24.814 0 45 20.186 45 45 0 8.291 6.709 15 15 15s15-6.709 15-15c0-41.353-33.647-75-75-75z"/><path d="m497 256.001c-8.291 0-15-6.709-15-15 0-57.891-47.109-105-105-105-8.291 0-15-6.709-15-15s6.709-15 15-15c74.443 0 135 60.557 135 135 0 8.291-6.709 15-15 15z"/><circle cx="316.999" cy="120.999" r="15"/></g><path d="m437.806 346.001-20.001-60h-266.805l-15 30v30 30l15 30h306.806z" fill="#f0f7ff"/><path d="m151 406.001h306.806l-20-60h-301.806v30z" fill="#dfe7f4"/><path d="m15 286.001c-8.291 0-15 6.709-15 15v45 45c0 8.291 6.709 15 15 15h136v-60-60z" fill="#fed843"/><path d="m15 406.001h136v-60h-151v45c0 8.291 6.709 15 15 15z" fill="#fabe2c"/></g></svg>