<svg id="Capa_1" enable-background="new 0 0 512 512" height="512" viewBox="0 0 512 512" width="512" xmlns="http://www.w3.org/2000/svg"><g><path d="m512 256c0 62.999-22.8 121.601-60.901 166h-389.198c-38.101-44.399-61.901-103.001-61.901-166 0-140.7 115.3-256 256-256s256 115.3 256 256z" fill="#5b362a"/><path d="m512 256c0 62.999-22.8 121.601-60.901 166h-195.099v-422c140.7 0 256 115.3 256 256z" fill="#38211a"/><g><g><path d="m286 60h-30-30c-8.291 0-15 6.709-15 15v45l30 31h15 15l30-31v-45c0-8.291-6.709-15-15-15z" fill="#fed843"/><path d="m301 120v-45c0-8.291-6.709-15-15-15h-30v91h15z" fill="#fabe2c"/></g><path d="m301 213.563v-93.563h-45-45v93.563c-17.461 6.196-30 22.881-30 42.437v151c0 8.291 6.709 15 15 15h60 60c8.291 0 15-6.709 15-15v-151c0-19.556-12.539-36.24-30-42.437z" fill="#97de3d"/><path d="m331 407v-151c0-19.556-12.539-36.24-30-42.437v-93.563h-45v302h60c8.291 0 15-6.709 15-15z" fill="#59c36a"/></g><g><path d="m496.996 512h-120.996c-8.291 0-15-6.709-15-15v-90c0-8.291 6.709-15 15-15h120.996c5.2 0 10.02 2.695 12.759 7.119s2.988 9.946.659 14.59l-19.146 38.291 19.146 38.291c2.329 4.644 2.08 10.166-.659 14.59s-7.559 7.119-12.759 7.119z" fill="#d0004f"/></g><g><path d="m2.245 504.881c-2.739-4.424-2.988-9.946-.659-14.59l19.146-38.291-19.146-38.291c-2.329-4.644-2.08-10.166.659-14.59s7.559-7.119 12.759-7.119h120.996c8.291 0 15 6.709 15 15v90c0 8.291-6.709 15-15 15h-120.996c-5.2 0-10.019-2.695-12.759-7.119z" fill="#ff435b"/></g><path d="m391 332h-270c-8.401 0-15 6.599-15 15v90c0 8.401 6.599 15 15 15h270c8.401 0 15-6.599 15-15v-90c0-8.401-6.599-15-15-15z" fill="#ff7b4a"/><path d="m406 347v90c0 8.401-6.599 15-15 15h-135v-120h135c8.401 0 15 6.599 15 15z" fill="#ff435b"/><path d="m361 392c0 8.401-6.599 15-15 15h-180c-8.401 0-15-6.599-15-15s6.599-15 15-15h180c8.401 0 15 6.599 15 15z" fill="#ff435b"/><path d="m361 392c0 8.401-6.599 15-15 15h-90v-30h90c8.401 0 15 6.599 15 15z" fill="#d0004f"/></g></svg>