<svg id="Capa_1" enable-background="new 0 0 511.971 511.971" height="512" viewBox="0 0 511.971 511.971" width="512" xmlns="http://www.w3.org/2000/svg"><g><path d="m270.017 242.129c-.011-.011-.013-.024-.024-.035-5.859-5.859-15.352-5.859-21.211 0l-84.858 84.858c-5.859 5.859-5.859 15.352 0 21.211.018.018.044.024.062.042 5.863 5.804 15.308 5.799 21.149-.042l84.858-84.858c5.849-5.848 5.85-15.317.024-21.176z" fill="#dfe7f4"/><path d="m185.135 348.163 84.858-84.858c5.848-5.848 5.85-15.317.024-21.176l-106.031 106.076c5.863 5.805 15.308 5.799 21.149-.042z" fill="#c7cfe1"/><path d="m406.063 190.883c-5.859-5.859-15.352-5.859-21.211 0l-72.452 72.422c-5.61 5.669-15.513 5.669-21.196 0l-10.607-10.607 83.029-83.04c5.854-5.854 5.856-15.33.013-21.191-.005-.005-.007-.015-.013-.02-5.859-5.859-15.352-5.859-21.211 0l-83.029 83.04-10.604-10.604c-5.845-5.859-5.845-15.366 0-21.226l72.422-72.422c5.859-5.859 5.859-15.352 0-21.211s-15.352-5.859-21.211 0l-72.422 72.422c-17.549 17.549-17.549 46.099 0 63.647l21.246 21.246 21.176 21.176c17.617 17.617 46.099 17.563 63.633 0l72.437-72.422c5.859-5.858 5.859-15.351 0-21.21z" fill="#f0f7ff"/><path d="m333.626 284.516 72.437-72.422c5.859-5.859 5.859-15.352 0-21.211s-15.352-5.859-21.211 0l-72.452 72.422c-5.61 5.669-15.513 5.669-21.196 0l-10.607-10.607 83.029-83.04c5.854-5.854 5.856-15.33.013-21.191l-114.822 114.873 21.176 21.176c17.617 17.616 46.099 17.563 63.633 0z" fill="#dfe7f4"/><path d="m480.945 159.404c-18.091-10.195-45.41-28.081-72.788-55.474-27.363-27.349-45.278-54.741-55.474-72.905-14.282-25.371-44.428-37.046-71.689-27.935-35.834 12.068-51.539 53.604-33.003 86.616 20.215 35.977 45.557 69.316 75.308 99.082.005.005.013.013.018.018 29.691 29.702 62.992 54.99 98.947 75.216 33.146 18.594 74.709 2.701 86.675-33.135 9.052-27.201-2.71-57.274-27.994-71.483z" fill="#ff7b4a"/><path d="m508.938 230.888c9.053-27.202-2.71-57.275-27.993-71.484-18.091-10.195-45.41-28.081-72.788-55.474l-84.84 84.877c29.691 29.702 62.992 54.99 98.947 75.216 33.145 18.594 74.709 2.701 86.674-33.135z" fill="#ff435b"/><path d="m206.3 348.255-21.11-21.26-21.189-21.339c-6-5.7-15.3-5.7-21.301 0l-31.8 32.1 15.895 45.82.921.916 21.398 21.297 25.386-4.733 31.8-31.8c6-5.701 6-15.301 0-21.001z" fill="#fed843"/><path d="m174.5 401.055 31.8-31.8c6-5.7 6-15.3 0-21l-21.11-21.26-57.473 57.497 21.398 21.297z" fill="#fabe2c"/><path d="m142.748 369.453-31.848-31.697-97.625 97.549c-17.701 17.399-17.701 45.899 0 63.6 17.401 17.401 45.899 17.401 63.6 0l97.625-97.85z" fill="#704c55"/><path d="m76.875 498.905 97.625-97.85-31.752-31.602-129.472 129.452c17.4 17.4 45.899 17.4 63.599 0z" fill="#5b362a"/></g></svg>