<svg id="Capa_1" enable-background="new 0 0 512 512" height="512" viewBox="0 0 512 512" width="512" xmlns="http://www.w3.org/2000/svg"><g><path d="m323.778 278.657c4.79-12.114 7.222-25.122 7.222-38.657 0-49.629-33.647-90-75-90s-75 40.371-75 90c0 13.55 2.432 26.558 7.207 38.643 15.645 39.639 25.313 115.833 14.18 158.914-4.673 18.047-11.338 35.786-19.805 52.734h73.418 73.418c-8.481-16.948-15.132-34.688-19.805-52.705-11.133-43.125-1.465-119.319 14.165-158.929z" fill="#f0f7ff"/><path d="m309.613 437.586c-11.133-43.125-1.465-119.319 14.165-158.929 4.79-12.114 7.222-25.122 7.222-38.657 0-49.629-33.647-90-75-90v340.291h73.418c-8.481-16.948-15.132-34.687-19.805-52.705z" fill="#dfe7f4"/><path d="m106 60h120v60h-120z" fill="#704c55"/><path d="m286 60h120v60h-120z" fill="#5b362a"/><path d="m451 165v30c0 8.399-6.599 15-15 15s-15-6.601-15-15v-30c0-8.401 6.599-15 15-15s15 6.599 15 15z" fill="#fabe2c"/><path d="m451 15v60c0 8.399-6.599 15-15 15s-15-6.601-15-15v-60c0-8.401 6.599-15 15-15s15 6.599 15 15z" fill="#c7cfe1"/><path d="m466 60h-60c-8.401 0-15 6.599-15 15v90c0 8.399 6.599 15 15 15h60c8.401 0 15-6.601 15-15v-90c0-8.401-6.599-15-15-15z" fill="#dfe7f4"/><path d="m481 15c0 8.399-6.599 15-15 15h-60c-8.401 0-15-6.601-15-15 0-8.401 6.599-15 15-15h60c8.401 0 15 6.599 15 15z" fill="#dfe7f4"/><path d="m91 165v30c0 8.399-6.599 15-15 15s-15-6.601-15-15v-30c0-8.401 6.599-15 15-15s15 6.599 15 15z" fill="#fed843"/><path d="m91 15v60c0 8.399-6.599 15-15 15s-15-6.601-15-15v-60c0-8.401 6.599-15 15-15s15 6.599 15 15z" fill="#dfe7f4"/><path d="m106 60h-60c-8.401 0-15 6.599-15 15v90c0 8.399 6.599 15 15 15h60c8.401 0 15-6.601 15-15v-90c0-8.401-6.599-15-15-15z" fill="#f0f7ff"/><path d="m121 15c0 8.399-6.599 15-15 15h-60c-8.401 0-15-6.601-15-15 0-8.401 6.599-15 15-15h60c8.401 0 15 6.599 15 15z" fill="#f0f7ff"/><path d="m346 482h-90-90c-8.291 0-15 6.709-15 15s6.709 15 15 15h90 90c8.291 0 15-6.709 15-15s-6.709-15-15-15z" fill="#704c55"/><path d="m361 497c0-8.291-6.709-15-15-15h-90v30h90c8.291 0 15-6.709 15-15z" fill="#5b362a"/><circle cx="256" cy="105" fill="#fed843" r="75"/><path d="m331 105c0-41.353-33.647-75-75-75v150c41.353 0 75-33.647 75-75z" fill="#fabe2c"/><circle cx="256" cy="104.998" fill="#704c55" r="15"/><path d="m271 104.998c0-8.284-6.716-15-15-15v30c8.284 0 15-6.714 15-15z" fill="#5b362a"/></g></svg>