<svg id="Capa_1" enable-background="new 0 0 512 512" height="512" viewBox="0 0 512 512" width="512" xmlns="http://www.w3.org/2000/svg"><g><path d="m76 181c-8.291 0-15-6.709-15-15v-90c0-8.291 6.709-15 15-15s15 6.709 15 15v90c0 8.291-6.709 15-15 15z" fill="#5b362a"/><path d="m436 181c-8.291 0-15-6.709-15-15v-90c0-8.291 6.709-15 15-15s15 6.709 15 15v90c0 8.291-6.709 15-15 15z" fill="#38211a"/><path d="m466 151h-210-210c-8.291 0-15 6.709-15 15v301c0 8.291 6.709 15 15 15h210 210c8.291 0 15-6.709 15-15v-301c0-8.291-6.709-15-15-15z" fill="#97de3d"/><path d="m481 467v-301c0-8.291-6.709-15-15-15h-210v331h210c8.291 0 15-6.709 15-15z" fill="#59c36a"/><path d="m136 512c-24.814 0-45-20.186-45-45s20.186-45 45-45 45 20.186 45 45-20.186 45-45 45z" fill="#704c55"/><path d="m376 512c-24.814 0-45-20.186-45-45s20.186-45 45-45 45 20.186 45 45-20.186 45-45 45z" fill="#5b362a"/><g><path d="m331 392h-15c-8.291 0-15-6.709-15-15s6.709-15 15-15h15c16.538 0 30-13.462 30-30s-13.462-30-30-30h-15c-8.291 0-15-6.709-15-15s6.709-15 15-15h15c33.091 0 60 26.909 60 60s-26.909 60-60 60z" fill="#c7cfe1"/><path d="m316 211h-60-60c-8.291 0-15 6.709-15 15v46l30 30h45 45l30-30v-46c0-8.291-6.709-15-15-15z" fill="#f0f7ff"/><path d="m331 272v-46c0-8.291-6.709-15-15-15h-60v91h45z" fill="#dfe7f4"/><path d="m256 272h-75v135c0 8.291 6.709 15 15 15h60 60c8.291 0 15-6.709 15-15v-135z" fill="#fed843"/><path d="m331 407v-135h-75v150h60c8.291 0 15-6.709 15-15z" fill="#fabe2c"/></g><path d="m136 452c-8.276 0-15 6.724-15 15s6.724 15 15 15 15-6.724 15-15-6.724-15-15-15z" fill="#f0f7ff"/><path d="m376 452c-8.276 0-15 6.724-15 15s6.724 15 15 15 15-6.724 15-15-6.724-15-15-15z" fill="#dfe7f4"/><path d="m436 0h-180-180c-41.353 0-76 34.647-76 76 0 8.291 6.709 15 15 15h241 241c8.291 0 15-6.709 15-15 0-41.353-34.647-76-76-76z" fill="#fed843"/><path d="m512 76c0-41.353-34.647-76-76-76h-180v91h241c8.291 0 15-6.709 15-15z" fill="#fabe2c"/></g></svg>