<svg id="Capa_1" enable-background="new 0 0 512 512" height="512" viewBox="0 0 512 512" width="512" xmlns="http://www.w3.org/2000/svg"><g><path d="m497 0h-241-241c-8.291 0-15 6.709-15 15v482c0 8.291 6.709 15 15 15h241 241c8.291 0 15-6.709 15-15v-482c0-8.291-6.709-15-15-15z" fill="#704c55"/><path d="m512 497v-482c0-8.291-6.709-15-15-15h-241v512h241c8.291 0 15-6.709 15-15z" fill="#5b362a"/><path d="m256 150h-226v332h166l30-30h30 30l30 30h166v-332z" fill="#5b362a"/><path d="m316 482h166v-332h-226v302h30z" fill="#38211a"/><g><path d="m331 452h-15c-8.291 0-15-6.709-15-15s6.709-15 15-15h15c16.538 0 30-14.462 30-31s-13.462-30-30-30h-15c-8.291 0-15-6.709-15-15s6.709-15 15-15h15c33.091 0 60 26.909 60 60s-26.909 61-60 61z" fill="#c7cfe1"/><path d="m316 270h-60-60c-8.291 0-15 6.709-15 15v46l30 30h45 45l30-30v-46c0-8.291-6.709-15-15-15z" fill="#f0f7ff"/><path d="m331 331v-46c0-8.291-6.709-15-15-15h-60v91h45z" fill="#dfe7f4"/><path d="m256 331h-75v136c0 8.291 6.709 15 15 15h60 60c8.291 0 15-6.709 15-15v-136z" fill="#fed843"/><path d="m331 467v-136h-75v151h60c8.291 0 15-6.709 15-15z" fill="#fabe2c"/></g><path d="m271 195v30c0 8.399-6.599 15-15 15s-15-6.601-15-15v-30c0-8.401 6.599-15 15-15s15 6.599 15 15z" fill="#fed843"/><path d="m271 195v30c0 8.399-6.599 15-15 15v-60c8.401 0 15 6.599 15 15z" fill="#fabe2c"/><path d="m271 45v60c0 8.399-6.599 15-15 15s-15-6.601-15-15v-60c0-8.401 6.599-15 15-15s15 6.599 15 15z" fill="#dfe7f4"/><path d="m271 45v60c0 8.399-6.599 15-15 15v-90c8.401 0 15 6.599 15 15z" fill="#c7cfe1"/><path d="m286 90h-60c-8.401 0-15 6.599-15 15v90c0 8.399 6.599 15 15 15h60c8.401 0 15-6.601 15-15v-90c0-8.401-6.599-15-15-15z" fill="#f0f7ff"/><path d="m301 45c0 8.399-6.599 15-15 15h-60c-8.401 0-15-6.601-15-15 0-8.401 6.599-15 15-15h60c8.401 0 15 6.599 15 15z" fill="#f0f7ff"/><path d="m286 60h-30v-30h30c8.401 0 15 6.599 15 15 0 8.399-6.599 15-15 15z" fill="#dfe7f4"/><path d="m301 105v90c0 8.399-6.599 15-15 15h-30v-120h30c8.401 0 15 6.599 15 15z" fill="#dfe7f4"/><path d="m151 195v30c0 8.399-6.599 15-15 15s-15-6.601-15-15v-30c0-8.401 6.599-15 15-15s15 6.599 15 15z" fill="#fed843"/><path d="m151 45v60c0 8.399-6.599 15-15 15s-15-6.601-15-15v-60c0-8.401 6.599-15 15-15s15 6.599 15 15z" fill="#dfe7f4"/><path d="m166 90h-60c-8.401 0-15 6.599-15 15v90c0 8.399 6.599 15 15 15h60c8.401 0 15-6.601 15-15v-90c0-8.401-6.599-15-15-15z" fill="#f0f7ff"/><path d="m181 45c0 8.399-6.599 15-15 15h-60c-8.401 0-15-6.601-15-15 0-8.401 6.599-15 15-15h60c8.401 0 15 6.599 15 15z" fill="#f0f7ff"/><path d="m391 195v30c0 8.399-6.599 15-15 15s-15-6.601-15-15v-30c0-8.401 6.599-15 15-15s15 6.599 15 15z" fill="#fabe2c"/><path d="m391 45v60c0 8.399-6.599 15-15 15s-15-6.601-15-15v-60c0-8.401 6.599-15 15-15s15 6.599 15 15z" fill="#c7cfe1"/><g fill="#dfe7f4"><path d="m406 90h-60c-8.401 0-15 6.599-15 15v90c0 8.399 6.599 15 15 15h60c8.401 0 15-6.601 15-15v-90c0-8.401-6.599-15-15-15z"/><path d="m421 45c0 8.399-6.599 15-15 15h-60c-8.401 0-15-6.601-15-15 0-8.401 6.599-15 15-15h60c8.401 0 15 6.599 15 15z"/></g></g></svg>