<svg id="Capa_1" enable-background="new 0 0 512 512" height="512" viewBox="0 0 512 512" width="512" xmlns="http://www.w3.org/2000/svg"><g><path d="m507.605 89.239-42.425-42.419-42.433-42.425c-5.859-5.859-15.352-5.859-21.211 0l-53.774 53.774c-5.859 5.859-5.859 15.352 0 21.211l42.429 42.429 42.429 42.429c2.813 2.813 6.621 4.395 10.605 4.395s7.793-1.582 10.605-4.395l53.774-53.789c5.861-5.859 5.861-15.351.001-21.21z" fill="#f0f7ff"/><path d="m443.226 168.633c3.984 0 7.793-1.582 10.605-4.395l53.774-53.789c5.859-5.859 5.859-15.352 0-21.211l-42.425-42.418-74.989 74.989 42.429 42.429c2.813 2.813 6.621 4.395 10.606 4.395z" fill="#dfe7f4"/><path d="m422.747 89.253c-52.744-52.775-138.17-52.775-190.913 0-1.256 1.258-5.867 5.885-10.583 10.616l24.467 54.467 55.972 55.975 79.38 79.384 31.057 1.058c4.805-4.79 9.478-9.446 10.622-10.587 52.773-52.743 52.773-138.169-.002-190.913z" fill="#dfe7f4"/><path d="m412.125 290.753c4.805-4.79 9.478-9.446 10.622-10.587 52.775-52.744 52.775-138.17 0-190.913l-121.058 121.059 79.38 79.384z" fill="#c7cfe1"/><g><path d="m46.648 220.093c-7.837-2.681-11.997-11.221-9.302-19.058.952-2.769 23.833-68.423 67.207-111.782 43.374-43.374 109.028-66.27 111.797-67.222 7.866-2.739 16.362 1.465 19.058 9.302 2.695 7.822-1.465 16.362-9.287 19.058-.615.22-61.963 21.68-100.356 60.073-38.525 38.511-59.839 99.712-60.059 100.327-2.639 7.718-11.1 12.026-19.058 9.302z" fill="#fed843"/></g><g><path d="m291.907 465.352c-2.695-7.822 1.465-16.362 9.287-19.058.615-.22 61.963-21.68 100.342-60.059 38.394-38.394 59.854-99.741 60.073-100.356 2.695-7.822 11.25-11.982 19.058-9.287 7.837 2.695 11.997 11.221 9.302 19.058-.952 2.769-23.848 68.423-67.222 111.797-43.359 43.359-109.014 66.255-111.782 67.207-7.741 2.674-16.339-1.389-19.058-9.302z" fill="#fabe2c"/></g><path d="m422.747 280.166c.383-.381.342-.34 0 0z"/><path d="m170.751 432.906-45.828-45.829-61.102-61.108-31.631-1.633-28.714 35.79c-4.966 5.962-4.57 14.736.923 20.215l63.097 64.164 63.109 63.102c5.495 5.495 14.266 5.874 20.215.923l35.931-29.623z" fill="#dfe7f4"/><path d="m150.82 508.529 35.931-29.623-16-46-45.828-45.829-57.427 57.427 63.109 63.102c5.495 5.495 14.266 5.874 20.215.923z" fill="#c7cfe1"/><path d="m316.689 195.312-95.439-95.442-189.06 224.466 77.736 77.739 76.825 76.831 225.374-188.153z" fill="#f0f7ff"/><path d="m412.125 290.753-95.436-95.441-206.763 206.763 76.825 76.831z" fill="#dfe7f4"/></g></svg>