<svg id="Capa_1" enable-background="new 0 0 512 512" height="512" viewBox="0 0 512 512" width="512" xmlns="http://www.w3.org/2000/svg"><g><path d="m271 97.901v60c0 8.399-6.599 15-15 15s-15-6.601-15-15v-60c0-8.401 6.599-15 15-15s15 6.599 15 15z" fill="#fed843"/><path d="m185.395 183.506-45-45c-5.859-5.859-5.859-15.352 0-21.211s15.352-5.859 21.211 0l45 45c5.859 5.859 5.859 15.352 0 21.211-5.86 5.859-15.352 5.86-21.211 0z" fill="#fed843"/><path d="m305.395 183.506c-5.859-5.859-5.859-15.352 0-21.211l45-45c5.859-5.859 15.352-5.859 21.211 0s5.859 15.352 0 21.211l-45 45c-5.86 5.859-15.352 5.86-21.211 0z" fill="#fabe2c"/><g><path d="m39.484 353.627 14.095 5.13c7.791 2.836 16.39-1.174 19.226-8.965s-1.174-16.39-8.965-19.226l-14.095-5.13c-15.541-5.656-23.587-22.911-17.93-38.451s22.911-23.587 38.451-17.93l14.095 5.13c7.791 2.836 16.39-1.174 19.226-8.965s-1.174-16.39-8.965-19.226l-14.095-5.13c-31.095-11.318-65.585 4.765-76.903 35.86s4.765 65.585 35.86 76.903z" fill="#dfe7f4"/><path d="m227.906 230.655-56.382-20.521-56.382-20.521c-7.791-2.836-16.39 1.174-19.226 8.965l-15.391 42.286 17.93 38.451 42.286 15.391 42.286 15.391 38.451-17.93 15.391-42.286c2.838-7.791-1.172-16.39-8.963-19.226z" fill="#f0f7ff"/><path d="m221.48 292.167 15.391-42.286c2.836-7.791-1.174-16.39-8.965-19.226l-56.382-20.521-30.782 84.572 42.286 15.391z" fill="#dfe7f4"/><path d="m151.003 266.515-70.477-25.652-46.172 126.859c-2.836 7.791 1.174 16.39 8.965 19.226l56.381 20.521 56.382 20.521c7.791 2.836 16.39-1.174 19.226-8.965l46.173-126.858z" fill="#fed843"/><path d="m175.308 419.025 46.173-126.858-70.477-25.652-51.304 140.954 56.382 20.521c7.791 2.836 16.39-1.174 19.226-8.965z" fill="#fabe2c"/></g><g><path d="m472.516 353.825-14.095 5.13c-7.791 2.836-16.39-1.174-19.226-8.965s1.174-16.39 8.965-19.226l14.095-5.13c15.541-5.656 23.587-22.911 17.93-38.451-5.656-15.541-22.911-23.587-38.451-17.93l-14.095 5.13c-7.791 2.836-16.39-1.174-19.226-8.965s1.174-16.39 8.965-19.226l14.095-5.13c31.095-11.318 65.585 4.765 76.903 35.86s-4.765 65.586-35.86 76.903z" fill="#c7cfe1"/><path d="m396.857 189.811-56.382 20.521-56.382 20.521c-7.791 2.836-11.801 11.435-8.965 19.226l15.391 42.286 38.451 17.93 42.286-15.391 42.286-15.391 17.93-38.451-15.391-42.286c-2.834-7.791-11.433-11.801-19.224-8.965z" fill="#f0f7ff"/><path d="m431.474 241.062-15.391-42.286c-2.836-7.791-11.435-11.801-19.226-8.965l-56.382 20.521 30.782 84.572 42.286-15.391z" fill="#dfe7f4"/><path d="m360.997 266.714-70.477 25.652 46.173 126.858c2.836 7.791 11.435 11.801 19.226 8.965l56.382-20.521 56.382-20.521c7.791-2.836 11.801-11.435 8.965-19.226l-46.173-126.859z" fill="#fed843"/><path d="m477.646 367.921-46.173-126.859-70.477 25.652 51.304 140.954 56.382-20.521c7.79-2.836 11.8-11.435 8.964-19.226z" fill="#fabe2c"/></g><path d="m271 97.901v60c0 8.399-6.599 15-15 15v-90c8.401 0 15 6.599 15 15z" fill="#fabe2c"/></g></svg>