<svg id="Capa_1" enable-background="new 0 0 512 512" height="512" viewBox="0 0 512 512" width="512" xmlns="http://www.w3.org/2000/svg"><g><path d="m255.943 361c-8.291 0-15 6.709-15 15v121c0 8.291 6.709 15 15 15s15-6.709 15-15v-121c0-8.291-6.709-15-15-15z" fill="#dfe7f4"/><path d="m270.943 497v-121c0-8.291-6.709-15-15-15v151c8.291 0 15-6.709 15-15z" fill="#c7cfe1"/><path d="m315.943 482h-60-60c-8.291 0-15 6.709-15 15s6.709 15 15 15h60 60c8.291 0 15-6.709 15-15s-6.709-15-15-15z" fill="#f0f7ff"/><path d="m330.943 497c0-8.291-6.709-15-15-15h-60v30h60c8.291 0 15-6.709 15-15z" fill="#dfe7f4"/><path d="m408.008 162.44c-5.676-13.109-9.946-26.959-12.795-41.44l-19.27-31h-120-120l-19.116 31c-2.747 14.258-6.852 27.682-12.305 40.166-13.901 31.582-17.124 66.753-9.316 101.704 15.645 70.065 79.292 128.159 160.386 128.159.121 0 .231-.031.352-.031 81.544-.172 149.033-58.881 162.539-136.401 5.221-29.981 2.379-61.831-10.475-92.157z" fill="#fed843"/><path d="m418.482 254.597c5.222-29.982 2.38-61.831-10.474-92.157-5.676-13.109-9.946-26.959-12.795-41.44l-19.27-31h-120v300.998c81.544-.172 149.033-58.881 162.539-136.401z" fill="#fabe2c"/><path d="m390.943 75v-30c0-24.814-20.186-45-45-45-11.514 0-22.031 4.351-30 11.484-15.938-14.268-44.063-14.268-60 0-15.938-14.268-44.063-14.268-60 0-7.969-7.133-18.487-11.484-30-11.484-24.814 0-45 20.186-45 45v30c0 15.767-1.384 31.798-4.116 46h49.116c8.401 0 15 6.599 15 15v15c0 16.5 13.499 30 30 30s30-13.5 30-30v-15c0-8.401 6.599-15 15-15s15 6.599 15 15v105c0 16.5 13.499 30 30 30s30-13.5 30-30v-105c0-8.401 6.599-15 15-15h49.27c-2.835-14.407-4.27-30.44-4.27-46z" fill="#f0f7ff"/><path d="m270.943 136v105c0 16.5 13.499 30 30 30s30-13.5 30-30v-105c0-8.401 6.599-15 15-15h49.27c-2.834-14.407-4.27-30.44-4.27-46v-30c0-24.814-20.186-45-45-45-11.514 0-22.031 4.351-30 11.484-15.938-14.268-44.063-14.268-60 0v109.516c8.4 0 15 6.599 15 15z" fill="#dfe7f4"/></g></svg>