<svg id="Capa_1" enable-background="new 0 0 512 512" height="512" viewBox="0 0 512 512" width="512" xmlns="http://www.w3.org/2000/svg"><g><g><path d="m421 91h-60v60h60c8.291 0 15 6.709 15 15v210c0 8.291-6.709 15-15 15h-60v60h60c41.353 0 75-33.647 75-75v-210c0-41.353-33.647-75-75-75z" fill="#c7cfe1"/></g><g fill="#fed843"><path d="m211 346h135l47.804-15-4.452-60-43.352-15h-135-135l-43.352 15-4.451 60 47.803 15z"/><path d="m211 166h135l34.452-15-4.452-60-30-15h-135-135l-30 15-4.451 60 34.451 15z"/><path d="m402.704 451-26.704-15h-165-165l-26.704 15-3.252 44.843c-.322 4.175 1.113 8.276 3.955 11.353 2.827 3.061 6.827 4.804 11.001 4.804h180 180c4.175 0 8.174-1.743 11.001-4.805 2.842-3.076 4.277-7.178 3.955-11.353z"/></g><path d="m393.804 331-4.452-60-43.352-15h-135v90h135z" fill="#fabe2c"/><path d="m380.452 151-4.452-60-30-15h-135v90h135z" fill="#fabe2c"/><path d="m402.001 507.195c2.842-3.076 4.277-7.178 3.955-11.353l-3.252-44.842-26.704-15h-165v76h180c4.175 0 8.174-1.743 11.001-4.805z" fill="#fabe2c"/><path d="m28.197 331-8.901 120h101.704l30-57.79-30-62.21z" fill="#5b362a"/><path d="m402.704 451-8.9-120h-92.804l-30 60.79 30 59.21z" fill="#38211a"/><path d="m211 331h-90v120h90 90v-120z" fill="#704c55"/><path d="m211 331h90v120h-90z" fill="#5b362a"/><path d="m389.352 271-8.9-120h-79.452l-30 67.421 30 52.579z" fill="#38211a"/><path d="m41.549 151-8.901 120h88.352l30-58.263-30-61.737z" fill="#5b362a"/><path d="m211 151h-90v120h90 90v-120z" fill="#704c55"/><path d="m211 151h90v120h-90z" fill="#5b362a"/><path d="m331 0c-11.567 0-22.02 4.508-30 11.704-7.979-7.196-18.433-11.704-30-11.704s-22.02 4.508-30 11.704c-7.979-7.196-18.433-11.704-30-11.704s-22.02 4.508-30 11.704c-7.979-7.196-18.433-11.704-30-11.704s-22.02 4.508-30 11.704c-7.979-7.196-18.433-11.704-30-11.704-24.814 0-45 20.186-45 45v46h165 165v-46c0-24.814-20.185-45-45-45z" fill="#f0f7ff"/><path d="m376 45c0-24.814-20.186-45-45-45-11.567 0-22.02 4.508-30 11.704-7.979-7.196-18.433-11.704-30-11.704s-22.02 4.508-30 11.704c-7.979-7.196-18.433-11.704-30-11.704v91h165z" fill="#dfe7f4"/></g></svg>