<svg id="Capa_1" enable-background="new 0 0 512 512" height="512" viewBox="0 0 512 512" width="512" xmlns="http://www.w3.org/2000/svg"><g><path d="m256 60c-8.291 0-15 6.709-15 15v60c0 8.291 6.709 15 15 15s15-6.709 15-15v-60c0-8.291-6.709-15-15-15z" fill="#704c55"/><path d="m271 135v-60c0-8.291-6.709-15-15-15v90c8.291 0 15-6.709 15-15z" fill="#5b362a"/><path d="m256 361h-165v90h165 165v-90z" fill="#704c55"/><path d="m256 361h165v90h-165z" fill="#5b362a"/><path d="m256 241h-165v90h165 165v-90z" fill="#97de3d"/><path d="m256 241h165v90h-165z" fill="#59c36a"/><circle cx="256" cy="45" fill="#ff7b4a" r="45"/><path d="m301 45c0-24.814-20.186-45-45-45v90c24.814 0 45-20.186 45-45z" fill="#ff435b"/><path d="m316 120h-60-60c-74.443 0-135 61.557-135 136 0 8.291 6.709 15 15 15h180 180c8.291 0 15-6.709 15-15 0-74.443-60.557-136-135-136z" fill="#fed843"/><path d="m451 256c0-74.443-60.557-136-135-136h-60v151h180c8.291 0 15-6.709 15-15z" fill="#fabe2c"/><circle cx="195.999" cy="195.999" fill="#fabe2c" r="15"/><circle cx="315.999" cy="195.999" fill="#ff9100" r="15"/><path d="m421 316h-53.789l-37.474 15h-73.737-74.053l-37.158-15h-53.789c-16.569 0-30 13.431-30 30 0 16.567 13.431 30 30 30h165 165c16.569 0 30-13.433 30-30 0-16.569-13.431-30-30-30z" fill="#ff435b"/><path d="m451 346c0-16.569-13.431-30-30-30h-53.789l-37.474 15h-73.737v45h165c16.569 0 30-13.433 30-30z" fill="#d0004f"/><circle cx="256" cy="195.998" fill="#fabe2c" r="15"/><path d="m271 195.998c0-8.284-6.716-15-15-15v30c8.284 0 15-6.716 15-15z" fill="#ff9100"/><path d="m256 316h-111.211l100.605 100.605c2.93 2.93 6.768 4.395 10.605 4.395s7.676-1.465 10.605-4.395l100.607-100.605z" fill="#ffe1ba"/><path d="m367.211 316h-111.211v105c3.838 0 7.676-1.465 10.605-4.395z" fill="#ffbfab"/><path d="m436 421h-180-180c-8.291 0-15 6.709-15 15 0 41.353 33.647 76 75 76h120 120c41.353 0 75-34.647 75-76 0-8.291-6.709-15-15-15z" fill="#fed843"/><path d="m451 436c0-8.291-6.709-15-15-15h-180v91h120c41.353 0 75-34.647 75-76z" fill="#fabe2c"/></g></svg>