<svg id="Capa_1" enable-background="new 0 0 512 512" height="512" viewBox="0 0 512 512" width="512" xmlns="http://www.w3.org/2000/svg"><g><path d="m301 241-30 14.399 30 15.601v226c0 8.399-6.599 15-15 15h-240c-8.401 0-15-6.601-15-15v-226l30-14.101-30-15.899v-226c0-8.401 6.599-15 15-15h240c8.401 0 15 6.599 15 15z" fill="#f0f7ff"/><g fill="#dfe7f4"><path d="m301 241-30 14.399 30 15.601v226c0 8.399-6.599 15-15 15h-120v-512h120c8.401 0 15 6.599 15 15z"/><path d="m106 211c-8.291 0-15-6.709-15-15v-60c0-8.291 6.709-15 15-15s15 6.709 15 15v60c0 8.291-6.709 15-15 15z"/><path d="m106 391c-8.291 0-15-6.709-15-15v-60c0-8.291 6.709-15 15-15s15 6.709 15 15v60c0 8.291-6.709 15-15 15z"/></g><g><path d="m451 331h-45-45l-30 30v90l30 31h45 45l30-31v-90z" fill="#fed843"/><path d="m481 451v-90l-30-30h-45v151h45z" fill="#fabe2c"/><path d="m436 121h-30-30c-8.291 0-15 6.709-15 15v45l30 30h15 15l30-30v-45c0-8.291-6.709-15-15-15z" fill="#704c55"/><path d="m451 181v-45c0-8.291-6.709-15-15-15h-30v90h15z" fill="#5b362a"/><path d="m331 451v46c0 8.291 6.709 15 15 15h60 60c8.291 0 15-6.709 15-15v-46h-75z" fill="#97de3d"/><path d="m451 273.563v-92.563h-45-45v92.563c-17.461 6.196-30 22.881-30 42.437v45h75 75v-45c0-19.556-12.539-36.24-30-42.437z" fill="#97de3d"/><g fill="#59c36a"><path d="m481 316c0-19.556-12.539-36.24-30-42.437v-92.563h-45v180h75z"/><path d="m481 497v-46h-75v61h60c8.291 0 15-6.709 15-15z"/></g></g><path d="m31 241h270v30h-270z" fill="#dfe7f4"/><path d="m166 241h135v30h-135z" fill="#c7cfe1"/></g></svg>