<svg id="Capa_1" enable-background="new 0 0 512 512" height="512" viewBox="0 0 512 512" width="512" xmlns="http://www.w3.org/2000/svg"><g><path d="m256 0c-8.291 0-15 6.709-15 15v60c0 8.291 6.709 16 15 16s15-7.709 15-16v-60c0-8.291-6.709-15-15-15z" fill="#97de3d"/><path d="m271 75v-60c0-8.291-6.709-15-15-15v91c8.291 0 15-7.709 15-16z" fill="#59c36a"/><path d="m351.116 271h-95.116-95.116c-15.465 64.12-12.632 118.945 9.13 163.096 28.623 58.037 79.102 76.425 81.24 77.128 1.538.513 3.149.776 4.746.776s3.208-.264 4.746-.776c2.139-.703 52.617-19.091 81.24-77.128 21.762-44.151 24.595-98.976 9.13-163.096z" fill="#b1e565"/><path d="m341.986 434.096c21.762-44.15 24.595-98.976 9.13-163.096h-95.116v241c1.597 0 3.208-.264 4.746-.776 2.139-.703 52.617-19.091 81.24-77.128z" fill="#97de3d"/><path d="m195.502 188.134-137.725-39.214c-76.567 150.879 36.46 266.543 37.617 267.686 2.9 2.9 6.738 4.395 10.605 4.395 2.886 0 5.786-.82 8.32-2.52 1.437-.953 142.589-97.076 81.183-230.347z" fill="#59c36a"/><path d="m454.413 149.271-123.208 12.363c-95.317 146.558 64.849 255.762 66.475 256.846 2.534 1.699 5.435 2.52 8.32 2.52 3.867 0 7.705-1.494 10.605-4.395 1.143-1.142 113.995-116.616 37.808-267.334z" fill="#00a66c"/><path d="m256 121h-105v105c0 129.331 96.167 162.861 100.254 164.224 1.538.513 3.149.776 4.746.776s3.208-.264 4.746-.776c4.087-1.363 100.254-34.893 100.254-164.224v-105z" fill="#97de3d"/><path d="m361 226v-105h-105v270c1.597 0 3.208-.264 4.746-.776 4.087-1.363 100.254-34.893 100.254-164.224z" fill="#59c36a"/><path d="m256 60c-252.085 0-256 194.052-256 196 0 8.291 6.709 15 15 15 156.024 0 217.491-73.914 241-130.739 23.509 56.825 84.976 130.739 241 130.739 8.291 0 15-6.709 15-15 0-1.948-3.915-196-256-196z" fill="#b1e565"/><path d="m497 271c8.291 0 15-6.709 15-15 0-1.948-3.915-196-256-196v80.261c23.509 56.825 84.976 130.739 241 130.739z" fill="#97de3d"/></g></svg>