<svg id="Capa_1" enable-background="new 0 0 512 512" height="512" viewBox="0 0 512 512" width="512" xmlns="http://www.w3.org/2000/svg"><g><path d="m467 121h-90-90l-45 30v101.353c0 75.161-63.816 138.647-137 138.647h-30c-41.353 0-75 34.647-75 76v30c0 8.291 6.709 15 15 15h234.91c30.996 0 59.927-11.323 82.09-31.084v16.084c0 8.291 6.709 15 15 15h30 120c8.291 0 15-6.709 15-15v-346z" fill="#fed843"/><path d="m512 497v-346l-45-30h-90v391h120c8.291 0 15-6.709 15-15z" fill="#fabe2c"/><path d="m467 0c-11.565 0-22.02 4.508-30 11.704-7.98-7.196-18.435-11.704-30-11.704s-22.02 4.508-30 11.704c-7.98-7.196-18.435-11.704-30-11.704s-22.02 4.508-30 11.704c-7.98-7.196-18.435-11.704-30-11.704-24.814 0-45 20.186-45 45v106h45c8.401 0 15 6.599 15 15v15c0 16.5 13.499 30 30 30s30-13.5 30-30v-15c0-8.401 6.599-15 15-15s15 6.599 15 15v105c0 16.5 13.499 30 30 30s30-13.5 30-30v-105c0-8.401 6.599-15 15-15h45v-106c0-24.814-20.186-45-45-45z" fill="#f0f7ff"/><path d="m392 166v105c0 16.5 13.499 30 30 30s30-13.5 30-30v-105c0-8.401 6.599-15 15-15h45v-106c0-24.814-20.186-45-45-45-11.565 0-22.02 4.508-30 11.704-7.98-7.196-18.435-11.704-30-11.704s-22.02 4.508-30 11.704v139.296c8.401 0 15 6.599 15 15z" fill="#dfe7f4"/></g></svg>