<svg id="Capa_1" enable-background="new 0 0 512 512" height="512" viewBox="0 0 512 512" width="512" xmlns="http://www.w3.org/2000/svg"><g><path d="m211 300v91h45 45v-91h-45z" fill="#dfe7f4"/><path d="m331 105c0 8.276-6.724 15-15 15s-15-6.724-15-15v-60c0-24.814-20.186-45-45-45s-45 20.186-45 45v60c0 8.276-6.724 15-15 15s-15-6.724-15-15h-30c0 24.814 20.186 45 45 45s45-20.186 45-45v-60c0-8.276 6.724-15 15-15s15 6.724 15 15v60c0 24.814 20.186 45 45 45s45-20.186 45-45z" fill="#dfe7f4"/><path d="m271 45v60c0 24.814 20.186 45 45 45s45-20.186 45-45h-30c0 8.276-6.724 15-15 15s-15-6.724-15-15v-60c0-24.814-20.186-45-45-45v30c8.276 0 15 6.724 15 15z" fill="#c7cfe1"/><path d="m256 300h45v91h-45z" fill="#c7cfe1"/><path d="m451 452v45c0 8.291 6.709 15 15 15s15-6.709 15-15v-15z" fill="#dfe7f4"/><path d="m271 482v15c0 8.291 6.709 15 15 15s15-6.709 15-15v-45z" fill="#f0f7ff"/><path d="m421 195v-180c0-8.291-6.709-15-15-15h-30-30c-8.291 0-15 6.709-15 15v180h45z" fill="#dfe7f4"/><path d="m421 15c0-8.291-6.709-15-15-15h-30v195h45z" fill="#c7cfe1"/><path d="m406 180h-30-30c-41.422 0-75 33.578-75 75l24.157 15h80.843 76.895l28.105-15c0-41.422-33.578-75-75-75z" fill="#f0f7ff"/><path d="m481 255c0-41.422-33.578-75-75-75h-30v90h76.895z" fill="#dfe7f4"/><path d="m376 255h-105v227h105 105v-227z" fill="#dfe7f4"/><path d="m376 255h105v227h-105z" fill="#c7cfe1"/><path d="m211 452v45c0 8.291 6.709 15 15 15s15-6.709 15-15v-15z" fill="#dfe7f4"/><path d="m31 482v15c0 8.291 6.709 15 15 15s15-6.709 15-15v-45z" fill="#f0f7ff"/><path d="m181 195v-180c0-8.291-6.709-15-15-15h-30-30c-8.291 0-15 6.709-15 15v180h45z" fill="#dfe7f4"/><path d="m181 15c0-8.291-6.709-15-15-15h-30v195h45z" fill="#c7cfe1"/><path d="m166 180h-30-30c-41.422 0-75 33.578-75 75l24.157 15h80.843 76.895l28.105-15c0-41.422-33.578-75-75-75z" fill="#f0f7ff"/><path d="m241 255c0-41.422-33.578-75-75-75h-30v90h76.895z" fill="#dfe7f4"/><path d="m136 255h-105v227h105 105v-227z" fill="#dfe7f4"/><path d="m136 255h105v227h-105z" fill="#c7cfe1"/></g></svg>