<svg id="Capa_1" enable-background="new 0 0 512 512" height="512" viewBox="0 0 512 512" width="512" xmlns="http://www.w3.org/2000/svg"><g><path d="m144 406v30c0 8.399-6.599 15-15 15s-15-6.601-15-15v-30c0-8.401 6.599-15 15-15s15 6.599 15 15z" fill="#fed843"/><path d="m144 406v30c0 8.399-6.599 15-15 15v-60c8.401 0 15 6.599 15 15z" fill="#fabe2c"/><path d="m144 256v60c0 8.399-6.599 15-15 15s-15-6.601-15-15v-60c0-8.401 6.599-15 15-15s15 6.599 15 15z" fill="#dfe7f4"/><path d="m144 256v60c0 8.399-6.599 15-15 15v-90c8.401 0 15 6.599 15 15z" fill="#c7cfe1"/><path d="m159 301h120v60h-120z" fill="#c7cfe1"/><path d="m384 60h-75-75l-45 15 13.326 90 31.674 15h75 75l31.674-15 12.326-90z" fill="#f0f7ff"/><path d="m415.674 165 12.326-90-44-15h-75v120h75z" fill="#dfe7f4"/><path d="m354 376h-45-45c0 54.287-28.198 113.837-28.477 114.423h73.477 73.477c-.279-.586-28.477-59.945-28.477-114.423z" fill="#5b362a"/><path d="m354 376h-45v114.423h73.477c-.279-.586-28.477-59.945-28.477-114.423z" fill="#38211a"/><path d="m309 165h-106.674l31.835 213.227c1.113 7.338 7.412 12.773 14.839 12.773h60 60c7.427 0 13.726-5.435 14.839-12.773l31.835-213.227z" fill="#fed843"/><path d="m383.839 378.227 31.835-213.227h-106.674v226h60c7.427 0 13.726-5.435 14.839-12.773z" fill="#fabe2c"/><path d="m159 301h-60c-8.401 0-15 6.599-15 15v90c0 8.399 6.599 15 15 15h60c8.401 0 15-6.601 15-15v-90c0-8.401-6.599-15-15-15z" fill="#f0f7ff"/><path d="m174 256c0 8.399-6.599 15-15 15h-60c-8.401 0-15-6.601-15-15 0-8.401 6.599-15 15-15h60c8.401 0 15 6.599 15 15z" fill="#f0f7ff"/><circle cx="338.999" cy="285.999" fill="#dfe7f4" r="15"/><circle cx="278.999" cy="225.999" fill="#f0f7ff" r="15"/><path d="m354 0h-45-45c-41.353 0-75 33.647-75 75h120 119c0-41.353-32.647-75-74-75z" fill="#704c55"/><path d="m354 0h-45v75h119c0-41.353-32.647-75-74-75z" fill="#5b362a"/><path d="m399 482h-90-90c-8.291 0-15 6.709-15 15s6.709 15 15 15h90 90c8.291 0 15-6.709 15-15s-6.709-15-15-15z" fill="#704c55"/><path d="m414 497c0-8.291-6.709-15-15-15h-90v30h90c8.291 0 15-6.709 15-15z" fill="#5b362a"/><g fill="#dfe7f4"><path d="m159 271h-30v-30h30c8.401 0 15 6.599 15 15 0 8.399-6.599 15-15 15z"/><path d="m174 316v90c0 8.399-6.599 15-15 15h-30v-120h30c8.401 0 15 6.599 15 15z"/></g></g></svg>