<svg id="Capa_1" enable-background="new 0 0 512 512" height="512" viewBox="0 0 512 512" width="512" xmlns="http://www.w3.org/2000/svg"><g><g fill="#97de3d"><path d="m375.537 75h-119.537-119.537c-18.378 13.682-30.463 35.38-30.463 60v106l42.041 30h107.95c.004 0 .005-.002.009-.002s.005.002.009.002h107.95l42.041-30v-106c0-24.62-12.085-46.318-30.463-60z"/><path d="m256 301h-107.756l-42.244 30v106c0 24.62 12.085 46.318 30.463 60h119.537 119.537c18.378-13.682 30.463-35.38 30.463-60v-106l-42.041-30z"/></g><path d="m256.009 271h107.95l42.041-30v-106c0-24.62-12.085-46.318-30.463-60h-119.537v195.998c.004 0 .005.002.009.002z" fill="#59c36a"/><path d="m406 437v-106l-42.041-30h-107.959v196h119.537c18.378-13.682 30.463-35.38 30.463-60z" fill="#59c36a"/><path d="m333.959 241c-15.952-27.627-45.557-45-77.959-45s-62.007 17.373-77.959 45h-72.041v90h72.244c15.961 27.567 45.397 45 77.756 45 32.402 0 62.007-17.373 77.959-45h72.041v-90z" fill="#fed843"/><path d="m333.959 331h72.041v-90h-72.041c-15.952-27.627-45.557-45-77.959-45v180c32.402 0 62.007-17.373 77.959-45z" fill="#fabe2c"/><path d="m256 0c-24.814 0-45 20.186-45 45v30h45 45v-30c0-24.814-20.186-45-45-45z" fill="#dfe7f4"/><path d="m301 45c0-24.814-20.186-45-45-45v75h45z" fill="#c7cfe1"/><path d="m256 270.998-.009.002h.009z"/><path d="m256.009 271h-.009-.009c-8.278.004-14.991 6.718-14.991 14.998 0 8.284 6.714 15 15 15 8.284 0 15-6.716 15-15 0-8.28-6.714-14.994-14.991-14.998z" fill="#704c55"/><path d="m271 285.998c0-8.28-6.714-14.995-14.991-14.998h-.009v29.998c8.284 0 15-6.716 15-15z" fill="#5b362a"/><path d="m256 271h.009l-.009-.002z"/><g fill="#f0f7ff"><path d="m391 482h-135-135c-8.291 0-15 6.709-15 15s6.709 15 15 15h135 135c8.291 0 15-6.709 15-15s-6.709-15-15-15z"/><path d="m121 90h135 135c8.291 0 15-6.709 15-15s-6.709-15-15-15h-135-135c-8.291 0-15 6.709-15 15s6.709 15 15 15z"/></g><g fill="#dfe7f4"><path d="m406 497c0-8.291-6.709-15-15-15h-135v30h135c8.291 0 15-6.709 15-15z"/><path d="m406 75c0-8.291-6.709-15-15-15h-135v30h135c8.291 0 15-6.709 15-15z"/></g></g></svg>