<svg id="Capa_1" enable-background="new 0 0 512 512" height="512" viewBox="0 0 512 512" width="512" xmlns="http://www.w3.org/2000/svg"><g><path d="m256 121c-8.291 0-15-6.709-15-15v-91c0-8.291 6.709-15 15-15s15 6.709 15 15v91c0 8.291-6.709 15-15 15z" fill="#5b362a"/><path d="m316 121c-8.291 0-15-6.709-15-15v-91c0-8.291 6.709-15 15-15s15 6.709 15 15v91c0 8.291-6.709 15-15 15z" fill="#5b362a"/><path d="m376 121c-8.291 0-15-6.709-15-15v-91c0-8.291 6.709-15 15-15s15 6.709 15 15v91c0 8.291-6.709 15-15 15z" fill="#38211a"/><path d="m436 121c-8.291 0-15-6.709-15-15v-91c0-8.291 6.709-15 15-15s15 6.709 15 15v91c0 8.291-6.709 15-15 15z" fill="#38211a"/><path d="m376 151h-60c-8.401 0-15 6.599-15 15v90c0 8.399 6.599 15 15 15h60c8.401 0 15-6.601 15-15v-90c0-8.401-6.599-15-15-15z" fill="#97de3d"/><path d="m391 166v90c0 8.399-6.599 15-15 15h-30v-120h30c8.401 0 15 6.599 15 15z" fill="#59c36a"/><path d="m136 61h-61c-59.326 0-75 68.687-75 105 0 77.505 40.4 105 75 105 8.291 0 16-6.709 16-15s-7.709-15-16-15c-27.757 0-44.996-28.738-45-74.991.004-.957.807-75.009 45-75.009h46v15c0 8.291 6.709 15 15 15s15-6.709 15-15v-30c0-8.291-6.709-15-15-15z" fill="#dfe7f4"/><path d="m196 151h-60c-8.401 0-15 6.599-15 15v90c0 8.399 6.599 15 15 15h60c8.401 0 15-6.601 15-15v-90c0-8.401-6.599-15-15-15z" fill="#97de3d"/><path d="m211 166v90c0 8.399-6.599 15-15 15h-30v-120h30c8.401 0 15 6.599 15 15z" fill="#59c36a"/><path d="m512 256v241c0 8.399-6.599 15-15 15h-136l-15-30-15 30h-150l-15-30-15 30h-136c-8.401 0-15-6.601-15-15v-241c0-8.401 6.599-15 15-15h482c8.401 0 15 6.599 15 15z" fill="#704c55"/><path d="m512 256v241c0 8.399-6.599 15-15 15h-136l-15-30-15 30h-75v-271h241c8.401 0 15 6.599 15 15z" fill="#5b362a"/><path d="m512 15c0 8.399-6.599 15-15 15h-301c-8.401 0-15-6.601-15-15 0-8.401 6.599-15 15-15h301c8.401 0 15 6.599 15 15z" fill="#704c55"/><path d="m512 106c0 8.399-6.599 15-15 15h-301c-8.401 0-15-6.601-15-15 0-8.401 6.599-15 15-15h301c8.401 0 15 6.599 15 15z" fill="#704c55"/><path d="m151 331h30v181h-30z" fill="#dfe7f4"/><path d="m166 331h15v181h-15z" fill="#c7cfe1"/><path d="m211 436c0 8.399-6.599 15-15 15h-60c-8.401 0-15-6.601-15-15 0-8.401 6.599-15 15-15h60c8.401 0 15 6.599 15 15z" fill="#f0f7ff"/><path d="m211 436c0 8.399-6.599 15-15 15h-30v-30h30c8.401 0 15 6.599 15 15z" fill="#dfe7f4"/><path d="m241 331c0 16.5-13.5 30-30 30h-90c-16.5 0-30-13.5-30-30s13.5-30 30-30h90c16.5 0 30 13.5 30 30z" fill="#ff7b4a"/><path d="m241 331c0 16.5-13.5 30-30 30h-45v-60h45c16.5 0 30 13.5 30 30z" fill="#ff435b"/><path d="m331 331h30v181h-30z" fill="#dfe7f4"/><path d="m346 331h15v181h-15z" fill="#c7cfe1"/><path d="m391 436c0 8.399-6.599 15-15 15h-60c-8.401 0-15-6.601-15-15 0-8.401 6.599-15 15-15h60c8.401 0 15 6.599 15 15z" fill="#f0f7ff"/><path d="m391 436c0 8.399-6.599 15-15 15h-30v-30h30c8.401 0 15 6.599 15 15z" fill="#dfe7f4"/><path d="m421 331c0 16.5-13.5 30-30 30h-90c-16.5 0-30-13.5-30-30s13.5-30 30-30h90c16.5 0 30 13.5 30 30z" fill="#ff7b4a"/><path d="m421 331c0 16.5-13.5 30-30 30h-45v-60h45c16.5 0 30 13.5 30 30z" fill="#ff435b"/><g fill="#5b362a"><path d="m512 106c0 8.399-6.599 15-15 15h-151v-30h151c8.401 0 15 6.599 15 15z"/><path d="m497 30h-151v-30h151c8.401 0 15 6.599 15 15 0 8.399-6.599 15-15 15z"/></g></g></svg>