<svg id="Capa_1" enable-background="new 0 0 512 512" height="512" viewBox="0 0 512 512" width="512" xmlns="http://www.w3.org/2000/svg"><g><path d="m196 106h-121c-41.353 0-75 33.647-75 75v270c0 5.2 2.695 10.02 7.119 12.759 4.33 2.692 9.844 3.016 14.59.659l56.836-28.418h117.455 120c41.353 0 75-33.647 75-75v-255z" fill="#fabe2c"/><path d="m391 361v-255h-195v330h120c41.353 0 75-33.647 75-75z" fill="#ff9100"/><path d="m437 46h-151-90c-41.353 0-75 33.647-75 75v180c0 41.353 33.647 75 75 75h90 147.455l56.836 28.418c4.746 2.357 10.259 2.032 14.59-.659 4.424-2.739 7.119-7.558 7.119-12.759v-270c0-41.352-33.647-75-75-75z" fill="#97de3d"/><path d="m490.291 404.418c4.746 2.357 10.259 2.032 14.59-.659 4.424-2.739 7.119-7.558 7.119-12.759v-270c0-41.353-33.647-75-75-75h-151v330h147.455z" fill="#59c36a"/><g><path d="m361 286h-15c-8.291 0-15-6.709-15-15s6.709-15 15-15h15c16.538 0 30-13.462 30-30s-13.462-30-30-30h-15c-8.291 0-15-6.709-15-15s6.709-15 15-15h15c33.091 0 60 26.909 60 60s-26.909 60-60 60z" fill="#c7cfe1"/><path d="m346 106h-60-60c-8.291 0-15 6.709-15 15v45l30 30h45 45l30-30v-45c0-8.291-6.709-15-15-15z" fill="#f0f7ff"/><path d="m361 166v-45c0-8.291-6.709-15-15-15h-60v90h45z" fill="#dfe7f4"/><path d="m286 166h-75v135c0 8.291 6.709 15 15 15h60 60c8.291 0 15-6.709 15-15v-135z" fill="#fed843"/><path d="m361 301v-135h-75v150h60c8.291 0 15-6.709 15-15z" fill="#fabe2c"/></g></g></svg>