<svg id="Capa_1" enable-background="new 0 0 512.004 512.004" height="512" viewBox="0 0 512.004 512.004" width="512" xmlns="http://www.w3.org/2000/svg"><g><path d="m503.713 116.857-142.709-70.866v67.099l91 44.987v127.925c0 8.291 6.709 15 15 15h30c8.291 0 15-6.709 15-15v-155.727c0-5.684-3.208-10.87-8.291-13.418z" fill="#c7cfe1"/><path d="m376.004.002h-150-211c-5.2 0-10.02 2.695-12.759 7.119s-2.988 9.946-.659 14.59l59.418 117.836v41.455l30 30h135 135l30-30v-166c0-8.291-6.709-15-15-15z" fill="#f0f7ff"/><path d="m391.004 181.002v-166c0-8.291-6.709-15-15-15h-150v211h135z" fill="#dfe7f4"/><path d="m271.004 181.002-15 30-15-30h-15-165v256c0 41.353 33.647 75 75 75h90 90c41.353 0 75-33.647 75-75v-256z" fill="#fed843"/><path d="m391.004 437.002v-256h-120l-15 30-15-30h-15v331h90c41.353 0 75-33.647 75-75z" fill="#fabe2c"/><g><path d="m271.004 151.002h45c8.291 0 15-6.709 15-15s-6.709-15-15-15h-45v-15c0-8.291-6.709-15-15-15s-15 6.709-15 15v75l15.316 15 14.684-15z" fill="#c7cfe1"/><path d="m256.004 421.002c8.291 0 15-6.709 15-15v-15h45c8.291 0 15-6.709 15-15s-6.709-15-15-15h-45v-30h45c8.291 0 15-6.709 15-15s-6.709-15-15-15h-45v-30h45c8.291 0 15-6.709 15-15s-6.709-15-15-15h-45v-60h-30v225c0 8.291 6.709 15 15 15z" fill="#ff9100"/></g></g></svg>