<svg id="Capa_1" enable-background="new 0 0 512 512" height="512" viewBox="0 0 512 512" width="512" xmlns="http://www.w3.org/2000/svg"><g><path d="m181.03 130.488c-8.291 0-15-6.709-15-15v-40.488c0-8.291 6.709-15 15-15s15 6.709 15 15v40.488c0 8.291-6.709 15-15 15z" fill="#575f64"/><path d="m361.03 211c-8.291 0-15 6.709-15 15v30c0 8.291 6.709 15 15 15s15-6.709 15-15v-30c0-8.291-6.709-15-15-15z" fill="#fed843"/><path d="m376.03 256v-30c0-8.291-6.709-15-15-15v60c8.291 0 15-6.709 15-15z" fill="#fabe2c"/><path d="m181.03 90c-24.814 0-45-20.186-45-45s20.186-45 45-45 45 20.186 45 45-20.186 45-45 45z" fill="#ff7b4a"/><g><path d="m436.03 482h-15c-8.291 0-15-6.709-15-15s6.709-15 15-15h15c16.538 0 30-13.462 30-30s-13.462-30-30-30h-15c-8.291 0-15-6.709-15-15s6.709-15 15-15h15c33.091 0 60 26.909 60 60s-26.909 60-60 60z" fill="#c7cfe1"/><path d="m421.03 301h-60-60c-8.291 0-15 6.709-15 15v46l30 30h45 45l30-30v-46c0-8.291-6.709-15-15-15z" fill="#f0f7ff"/><path d="m436.03 362v-46c0-8.291-6.709-15-15-15h-60v91h45z" fill="#dfe7f4"/><path d="m361.03 362h-75v135c0 8.291 6.709 15 15 15h60 60c8.291 0 15-6.709 15-15v-135z" fill="#fed843"/><path d="m436.03 497v-135h-75v150h60c8.291 0 15-6.709 15-15z" fill="#fabe2c"/></g><path d="m391.03 150h-30-30c-8.291 0-15 6.709-15 15v61c0 8.291 6.709 15 15 15h30 30c8.291 0 15-6.709 15-15v-61c0-8.291-6.709-15-15-15z" fill="#dfe7f4"/><path d="m406.03 226v-61c0-8.291-6.709-15-15-15h-30v91h30c8.291 0 15-6.709 15-15z" fill="#c7cfe1"/><path d="m451.03 30h-90c-8.291 0-15 6.709-15 15v60c0 8.291 6.709 15 15 15s15-6.709 15-15v-45h75c8.291 0 15-6.709 15-15s-6.709-15-15-15z" fill="#5b362a"/><path d="m421.03 90h-60-75l-15 30v30l15 31.388c4.962-.535 9.738-1.388 15-1.388h60 60c24.814 0 45-20.186 45-45s-20.186-45-45-45z" fill="#f0f7ff"/><path d="m466.03 135c0-24.814-20.186-45-45-45h-60v90h60c24.814 0 45-20.186 45-45z" fill="#dfe7f4"/><path d="m247.109 90c-99.814 0-185.552 64.662-218.394 163.188-26.63 79.848-10.986 167.655 41.851 233.221l165.249-20.347c-63.018-38.701-90.894-115.126-67.793-184.398 14.346-43.109 53.736-93.357 118.008-100.276v-91.388z" fill="#dfe7f4"/><path d="m241.03 512h-210c-8.291 0-15-6.709-15-15v-30c0-8.291 6.709-15 15-15h210c8.291 0 15 6.709 15 15v30c0 8.291-6.709 15-15 15z" fill="#5b362a"/></g></svg>