<svg id="Capa_1" enable-background="new 0 0 512 512" height="512" viewBox="0 0 512 512" width="512" xmlns="http://www.w3.org/2000/svg"><g><g><path d="m271 15v61c0 8.399-6.599 15-15 15s-15-6.601-15-15v-61c0-8.401 6.599-15 15-15s15 6.599 15 15z" fill="#fed843"/></g><g><path d="m185.395 101.605-45-45c-5.859-5.859-5.859-15.352 0-21.211s15.352-5.859 21.211 0l45 45c5.859 5.859 5.859 15.352 0 21.211-5.86 5.86-15.352 5.86-21.211 0z" fill="#fed843"/></g><g><path d="m305.395 101.605c-5.859-5.859-5.859-15.352 0-21.211l45-45c5.859-5.859 15.352-5.859 21.211 0s5.859 15.352 0 21.211l-45 45c-5.86 5.86-15.352 5.86-21.211 0z" fill="#fabe2c"/></g><g><path d="m426.466 306.033-42.287 15.391-42.286 15.391-17.93 38.451 30.782 84.572 38.451 17.931 42.286-15.391 42.287-15.391 17.93-38.452-30.782-84.572z" fill="#fed843"/><path d="m495.699 408.535-30.782-84.572-38.451-17.93-42.287 15.391 51.303 140.954 42.287-15.391z" fill="#fabe2c"/><path d="m340.546 113.828-28.191 10.261-28.191 10.261c-7.791 2.836-11.801 11.435-8.965 19.226l15.391 42.286 38.451 17.93 14.095-5.13 14.095-5.13 17.93-38.451-15.391-42.286c-2.834-7.793-11.433-11.803-19.224-8.967z" fill="#704c55"/><path d="m375.163 165.079-15.391-42.286c-2.836-7.791-11.435-11.801-19.226-8.965l-28.191 10.261 30.782 84.572 14.095-5.13z" fill="#5b362a"/><path d="m354.745 459.838 15.391 42.286c2.836 7.791 11.435 11.801 19.226 8.965l56.382-20.521 56.382-20.521c7.791-2.836 11.801-11.435 8.965-19.226l-15.391-42.286-70.477 25.652z" fill="#97de3d"/><path d="m406.821 252.06-31.659-86.981-42.286 15.391-42.286 15.391 31.659 86.981c-14.289 11.795-20.365 31.762-13.677 50.138l15.391 42.286 70.477-25.651 70.477-25.652-15.391-42.286c-6.688-18.376-24.178-29.766-42.705-29.617z" fill="#97de3d"/><g fill="#59c36a"><path d="m449.526 281.677c-6.688-18.376-24.178-29.766-42.705-29.617l-31.659-86.981-42.286 15.391 61.564 169.145 70.477-25.652z"/><path d="m511.09 450.822-15.391-42.286-70.477 25.652 20.521 56.382 56.382-20.521c7.791-2.837 11.8-11.436 8.965-19.227z"/></g></g><g><path d="m170.107 336.815-42.286-15.391-42.287-15.391-38.451 17.93-30.782 84.572 17.93 38.452 42.287 15.391 42.286 15.391 38.451-17.931 30.782-84.572z" fill="#fed843"/><path d="m157.255 459.838 30.782-84.572-17.93-38.451-42.286-15.391-51.303 140.954 42.286 15.391z" fill="#fabe2c"/><path d="m227.836 134.349-28.191-10.261-28.191-10.261c-7.791-2.836-16.39 1.174-19.226 8.965l-15.391 42.286 17.93 38.451 14.095 5.13 14.095 5.13 38.451-17.93 15.391-42.286c2.837-7.789-1.172-16.388-8.963-19.224z" fill="#704c55"/><path d="m221.41 195.861 15.391-42.286c2.836-7.791-1.174-16.39-8.965-19.226l-28.191-10.261-30.782 84.572 14.095 5.13z" fill="#5b362a"/><path d="m16.301 408.535-15.391 42.287c-2.836 7.791 1.174 16.39 8.965 19.226l56.382 20.521 56.382 20.521c7.791 2.836 16.39-1.174 19.226-8.965l15.391-42.286-70.477-25.652z" fill="#97de3d"/><path d="m189.751 282.842 31.659-86.981-42.286-15.391-42.286-15.391-31.659 86.981c-18.527-.149-36.016 11.24-42.705 29.617l-15.391 42.286 70.477 25.652 70.477 25.651 15.391-42.286c6.688-18.376.612-38.343-13.677-50.138z" fill="#97de3d"/><g fill="#59c36a"><path d="m203.428 332.98c6.688-18.376.612-38.343-13.677-50.138l31.659-86.981-42.286-15.391-61.564 169.145 70.477 25.651z"/><path d="m141.864 502.125 15.391-42.286-70.477-25.652-20.521 56.382 56.382 20.521c7.791 2.835 16.39-1.174 19.225-8.965z"/></g></g><path d="m271 15v61c0 8.399-6.599 15-15 15v-91c8.401 0 15 6.599 15 15z" fill="#fabe2c"/></g></svg>