<svg id="Capa_1" enable-background="new 0 0 512 512" height="512" viewBox="0 0 512 512" width="512" xmlns="http://www.w3.org/2000/svg"><g><path d="m352.234 177.246c40.382-95.94 38.987-92.607 38.804-102.246 0-51.738-78.94-75-135-75-52.192 0-135 20.361-135.029 75.454-.513 8.071-.513 8.071 43.301 112.31l27.993 67.606c15.469 36.855 17.08 79.047 4.526 116.972-14.15 42.729-15.791 57.363-15.791 64.658 0 41.353 33.647 75 75 75s75-33.647 75-75c0-7.266-1.641-21.885-15.776-64.644-12.568-37.939-10.957-80.131 4.526-116.972zm-96.196 274.752c-8.286 0-15-6.716-15-15s6.714-15 15-15c8.284 0 15 6.716 15 15s-6.716 15-15 15zm33.809-281.183c-2.344 5.566-7.793 9.185-13.828 9.185h-19.98-19.937c-6.035 0-11.484-3.618-13.828-9.185-13.74-32.725-30.146-71.807-33.765-80.581-1.553-3.75-1.523-7.954.088-11.675s4.644-6.636 8.438-8.071c13.315-5.068 35.815-10.488 59.003-10.488 23.276 0 45.806 5.479 59.121 10.605 3.779 1.465 6.797 4.38 8.394 8.101 1.597 3.706 1.626 7.91.073 11.646-3.237 7.822-19.849 47.373-33.779 80.463z" fill="#dfe7f4"/><path d="m331.038 437c0-7.266-1.641-21.885-15.776-64.644-12.568-37.939-10.957-80.131 4.526-116.972l32.446-78.139c40.382-95.939 38.987-92.606 38.804-102.245 0-51.738-78.94-75-135-75v60c23.276 0 45.806 5.479 59.121 10.605 3.779 1.465 6.797 4.38 8.394 8.101 1.597 3.706 1.626 7.91.073 11.646-3.237 7.822-19.849 47.373-33.779 80.464-2.344 5.566-7.793 9.185-13.828 9.185h-19.98v241.998c8.284 0 15 6.716 15 15s-6.716 15-15 15v60.001c41.352 0 74.999-33.647 74.999-75z" fill="#c7cfe1"/></g></svg>