<svg id="Capa_1" enable-background="new 0 0 512.024 512.024" height="512" viewBox="0 0 512.024 512.024" width="512" xmlns="http://www.w3.org/2000/svg"><g><path d="m384.786 2.851c-3.94-2.827-8.979-3.633-13.521-2.051l-115.253 39.417-154.746 51.583 9.492 28.447 145.254-7.372 135-6.852v-91c0-4.819-2.315-9.345-6.226-12.172z" fill="#5b362a"/><path d="m391.012 15.024c0-4.819-2.314-9.346-6.226-12.173-3.94-2.827-8.979-3.633-13.521-2.051l-115.253 39.417v72.658l135-6.852z" fill="#38211a"/><path d="m436.012 91.024h-180-150c-8.291 0-15 6.709-15 15v391c0 8.291 6.709 15 15 15h150 180c8.291 0 15-6.709 15-15v-391c0-8.291-6.709-15-15-15z" fill="#97de3d"/><path d="m451.012 497.024v-391c0-8.291-6.709-15-15-15h-180v421h180c8.291 0 15-6.709 15-15z" fill="#59c36a"/><g><path d="m331.012 376.024h-15c-8.291 0-15-6.709-15-15s6.709-15 15-15h15c16.538 0 30-13.462 30-30s-13.462-30-30-30h-15c-8.291 0-15-6.709-15-15s6.709-15 15-15h15c33.091 0 60 26.909 60 60s-26.909 60-60 60z" fill="#c7cfe1"/><path d="m316.012 196.024h-60-60c-8.291 0-15 6.709-15 15v45l30 30h45 45l30-30v-45c0-8.291-6.709-15-15-15z" fill="#f0f7ff"/><path d="m331.012 256.024v-45c0-8.291-6.709-15-15-15h-60v90h45z" fill="#dfe7f4"/><path d="m256.012 256.024h-75v135c0 8.291 6.709 15 15 15h60 60c8.291 0 15-6.709 15-15v-135z" fill="#fed843"/><path d="m331.012 391.024v-135h-75v150h60c8.291 0 15-6.709 15-15z" fill="#fabe2c"/></g><g fill="#704c55"><path d="m136.012 211.024h-60c-8.291 0-15-6.709-15-15s6.709-15 15-15h60c8.291 0 15 6.709 15 15s-6.709 15-15 15z"/><path d="m136.012 331.024h-60c-8.291 0-15-6.709-15-15s6.709-15 15-15h60c8.291 0 15 6.709 15 15s-6.709 15-15 15z"/><path d="m136.012 451.024h-60c-8.291 0-15-6.709-15-15s6.709-15 15-15h60c8.291 0 15 6.709 15 15s-6.709 15-15 15z"/></g></g></svg>