<svg id="Capa_1" enable-background="new 0 0 512 512" height="512" viewBox="0 0 512 512" width="512" xmlns="http://www.w3.org/2000/svg"><g><g fill="#fed843"><path d="m316 76h136l24-15c-13.279-33.12-25.404-52.647-26.52-54.32-2.783-4.175-7.47-6.68-12.48-6.68h-121-121c-5.01 0-9.697 2.505-12.48 6.68-1.116 1.673-13.241 21.2-26.52 54.32l24 15z"/><path d="m511.176 226-29.176-15h-166-166l-29.176 15c-.509 9.734-.824 19.702-.824 30s.315 20.266.824 30l29.176 15h166 166l29.176-15c.509-9.734.824-19.702.824-30s-.315-20.266-.824-30z"/><path d="m316 436h-136l-24 15c13.279 33.12 25.404 52.647 26.519 54.32 2.783 4.175 7.471 6.68 12.48 6.68h121 121c5.01 0 9.697-2.505 12.48-6.68 9.265-13.907 18.159-33.47 26.519-54.32l-24-15z"/></g><g fill="#fabe2c"><path d="m511.176 286c.509-9.734.824-19.702.824-30s-.315-20.266-.824-30l-29.176-15h-166v90h166z"/><path d="m449.48 505.32c9.265-13.907 18.159-33.47 26.519-54.32l-24-15h-135.999v76h121c5.01 0 9.697-2.505 12.48-6.68z"/><path d="m476 61c-13.279-33.12-25.404-52.647-26.52-54.32-2.783-4.175-7.47-6.68-12.48-6.68h-121v76h136z"/></g><path d="m60 406v30c0 8.399-6.599 15-15 15s-15-6.601-15-15v-30c0-8.401 6.599-15 15-15s15 6.599 15 15z" fill="#fed843"/><path d="m60 406v30c0 8.399-6.599 15-15 15v-60c8.401 0 15 6.599 15 15z" fill="#fabe2c"/><path d="m60 256v60c0 8.399-6.599 15-15 15s-15-6.601-15-15v-60c0-8.401 6.599-15 15-15s15 6.599 15 15z" fill="#dfe7f4"/><path d="m60 256v60c0 8.399-6.599 15-15 15v-90c8.401 0 15 6.599 15 15z" fill="#c7cfe1"/><path d="m75 301h120v60h-120z" fill="#c7cfe1"/><path d="m75 301h-60c-8.401 0-15 6.599-15 15v90c0 8.399 6.599 15 15 15h60c8.401 0 15-6.601 15-15v-90c0-8.401-6.599-15-15-15z" fill="#f0f7ff"/><path d="m90 256c0 8.399-6.599 15-15 15h-60c-8.401 0-15-6.601-15-15 0-8.401 6.599-15 15-15h60c8.401 0 15 6.599 15 15z" fill="#f0f7ff"/><path d="m75 271h-30v-30h30c8.401 0 15 6.599 15 15 0 8.399-6.599 15-15 15z" fill="#dfe7f4"/><path d="m90 316v90c0 8.399-6.599 15-15 15h-30v-120h30c8.401 0 15 6.599 15 15z" fill="#dfe7f4"/><path d="m120.824 286c3.735 71.461 20.171 127.573 35.176 165h70l30-87.158-30-77.842z" fill="#5b362a"/><path d="m406 451h70c15.005-37.427 31.441-93.539 35.176-165h-105.176l-30 78.79z" fill="#38211a"/><path d="m226 286v165h90 90v-165h-90z" fill="#704c55"/><path d="m316 286h90v165h-90z" fill="#5b362a"/><path d="m156 61c-15.005 37.427-31.441 93.539-35.176 165h105.176l30-88.579-30-76.421z" fill="#5b362a"/><path d="m511.176 226c-3.735-71.461-20.171-127.573-35.176-165h-70l-30 88.737 30 76.263z" fill="#38211a"/><path d="m316 61h-90v165h90 90v-165z" fill="#704c55"/><path d="m316 61h90v165h-90z" fill="#5b362a"/></g></svg>