<svg id="Capa_1" enable-background="new 0 0 512 512" height="512" viewBox="0 0 512 512" width="512" xmlns="http://www.w3.org/2000/svg"><g><g><path d="m286 60h-30-30c-8.291 0-15 6.709-15 15v46l30 30h15 15l30-30v-46c0-8.291-6.709-15-15-15z" fill="#704c55"/><path d="m301 121v-46c0-8.291-6.709-15-15-15h-30v91h15z" fill="#5b362a"/></g><path d="m301 213.563v-92.563h-45-45v92.563c-17.461 6.196-30 22.881-30 42.437v181c0 8.291 6.709 15 15 15h60 60c8.291 0 15-6.709 15-15v-181c0-19.556-12.539-36.24-30-42.437z" fill="#97de3d"/><path d="m331 437v-181c0-19.556-12.539-36.24-30-42.437v-92.563h-45v331h60c8.291 0 15-6.709 15-15z" fill="#59c36a"/><path d="m256 0c-140.61 0-256 115.39-256 256s115.39 256 256 256 256-115.39 256-256-115.39-256-256-256zm-226 256c0-124.072 101.928-226 226-226 56.646 0 108.322 22.2 147.916 56.873l-147.916 147.916-169.127 169.127c-34.673-39.594-56.873-91.27-56.873-147.916zm226 226c-56.646 0-108.322-22.2-147.916-56.873l147.916-147.916 169.127-169.127c34.673 39.594 56.873 91.27 56.873 147.916 0 124.072-101.928 226-226 226z" fill="#ff435b"/><path d="m512 256c0-140.61-115.39-256-256-256v30c56.646 0 108.322 22.2 147.916 56.873l-147.916 147.916v42.422l169.127-169.127c34.673 39.594 56.873 91.27 56.873 147.916 0 124.072-101.928 226-226 226v30c140.61 0 256-115.39 256-256z" fill="#d0004f"/></g></svg>