<svg id="Capa_1" enable-background="new 0 0 512 512" height="512" viewBox="0 0 512 512" width="512" xmlns="http://www.w3.org/2000/svg"><g><path d="m477.25 186.068c-2.856-3.222-6.943-5.068-11.25-5.068h-90-90c-4.307 0-8.394 1.846-11.25 5.068-2.842 3.223-4.175 7.529-3.633 11.792l30 240c.938 7.5 7.324 13.14 14.883 13.14h60 60c7.559 0 13.945-5.64 14.883-13.14l30-240c.542-4.262-.791-8.569-3.633-11.792z" fill="#ff7b4a"/><path d="m450.883 437.86 30-240c.542-4.263-.791-8.569-3.633-11.792-2.856-3.222-6.943-5.068-11.25-5.068h-90v270h60c7.559 0 13.945-5.64 14.883-13.14z" fill="#ff435b"/><path d="m237.25 186.068c-2.856-3.222-6.943-5.068-11.25-5.068h-90-90c-4.307 0-8.394 1.846-11.25 5.068-2.842 3.223-4.175 7.529-3.633 11.792l30 240c.938 7.5 7.324 13.14 14.883 13.14h60 60c7.559 0 13.945-5.64 14.883-13.14l30-240c.542-4.262-.791-8.569-3.633-11.792z" fill="#ff7b4a"/><path d="m210.883 437.86 30-240c.542-4.263-.791-8.569-3.633-11.792-2.856-3.222-6.943-5.068-11.25-5.068h-90v270h60c7.559 0 13.945-5.64 14.883-13.14z" fill="#ff435b"/><path d="m256 0c-41.353 0-75 34.647-75 76s33.647 75 75 75 75-33.647 75-75-33.647-76-75-76z" fill="#fed843"/><path d="m331 76c0-41.353-33.647-76-75-76v151c41.353 0 75-33.647 75-75z" fill="#fabe2c"/><path d="m357.25 246.068c-2.856-3.222-6.943-5.068-11.25-5.068h-90-90c-4.307 0-8.394 1.846-11.25 5.068-2.842 3.223-4.175 7.529-3.633 11.792l30 241c.938 7.5 7.324 13.14 14.883 13.14h60 60c7.559 0 13.945-5.64 14.883-13.14l30-241c.542-4.262-.791-8.569-3.633-11.792z" fill="#ff7b4a"/><path d="m330.883 498.86 30-241c.542-4.263-.791-8.569-3.633-11.792-2.856-3.222-6.943-5.068-11.25-5.068h-90v271h60c7.559 0 13.945-5.64 14.883-13.14z" fill="#ff435b"/></g></svg>