<svg id="Capa_1" enable-background="new 0 0 512 512" height="512" viewBox="0 0 512 512" width="512" xmlns="http://www.w3.org/2000/svg"><g><path d="m512 256c0-4.043-1.626-7.91-4.512-10.723-27.935-27.29-39.73-67.617-29.198-105.234 1.084-3.882.571-8.042-1.45-11.543s-5.361-6.035-9.272-7.031c-37.837-9.683-67.354-39.199-77.036-77.036-.996-3.911-3.53-7.251-7.031-9.272-3.501-2.007-7.69-2.505-11.543-1.45-37.705 10.532-77.944-1.461-105.234-29.381-2.814-2.887-6.769-4.33-10.724-4.33s-7.91 1.443-10.723 4.329c-27.275 27.935-67.559 39.943-105.234 29.381-3.823-1.055-8.042-.557-11.543 1.45-3.501 2.021-6.035 5.361-7.031 9.272-9.683 37.837-39.199 67.354-77.036 77.036-3.911.996-7.251 3.53-9.272 7.031s-2.534 7.661-1.45 11.543c10.532 37.617-1.264 77.944-29.198 105.234-2.887 2.814-4.513 6.681-4.513 10.724s1.626 7.91 4.512 10.723c27.935 27.29 39.73 67.617 29.198 105.234-1.084 3.882-.571 8.042 1.45 11.543s5.361 6.035 9.272 7.031c37.837 9.683 67.354 39.199 77.036 77.036.996 3.911 3.53 7.251 7.031 9.272 3.501 2.036 7.676 2.505 11.558 1.45 37.573-10.518 77.915 1.249 105.22 29.198 2.813 2.887 6.68 4.513 10.723 4.513s7.91-1.626 10.723-4.512c27.319-27.964 67.617-39.716 105.22-29.198 3.867 1.055 8.057.586 11.558-1.45 3.501-2.021 6.035-5.361 7.031-9.272 9.683-37.837 39.199-67.354 77.036-77.036 3.911-.996 7.251-3.53 9.272-7.031s2.534-7.661 1.45-11.543c-10.532-37.617 1.264-77.944 29.198-105.234 2.886-2.814 4.512-6.681 4.512-10.724z" fill="#fed843"/><path d="m371.942 478.29c3.867 1.055 8.057.586 11.558-1.45 3.501-2.021 6.035-5.361 7.031-9.272 9.683-37.837 39.199-67.354 77.036-77.036 3.911-.996 7.251-3.53 9.272-7.031s2.534-7.661 1.45-11.543c-10.532-37.617 1.264-77.944 29.198-105.234 2.887-2.814 4.513-6.681 4.513-10.724s-1.626-7.91-4.512-10.723c-27.935-27.29-39.73-67.617-29.198-105.234 1.084-3.882.571-8.042-1.45-11.543s-5.361-6.035-9.272-7.031c-37.837-9.683-67.354-39.199-77.036-77.036-.996-3.911-3.53-7.251-7.031-9.272-3.501-2.007-7.69-2.505-11.543-1.45-37.705 10.532-77.944-1.461-105.234-29.381-2.814-2.887-6.769-4.33-10.724-4.33v512c4.043 0 7.91-1.626 10.723-4.512 27.319-27.964 67.617-39.716 105.219-29.198z" fill="#fabe2c"/><circle cx="256" cy="256" fill="#fabe2c" r="165"/><path d="m421 256c0-90.981-74.019-165-165-165v330c90.981 0 165-74.019 165-165z" fill="#ff9100"/><path d="m341.591 228.197c-1.538-4.717-5.288-8.364-10.02-9.756l-39.756-11.719-23.438-34.204c-2.798-4.072-7.588-6.108-12.378-6.108s-9.58 2.036-12.378 6.108l-23.438 34.204-39.756 11.719c-4.731 1.392-8.481 5.039-10.02 9.756-1.523 4.702-.645 9.858 2.373 13.77l25.269 32.856-1.143 41.44c-.132 4.937 2.183 9.639 6.182 12.539 3.999 2.915 9.199 3.677 13.843 2.007l39.069-13.886 39.053 13.887c4.622 1.65 9.798.916 13.843-1.992 3.999-2.915 6.313-7.603 6.182-12.554l-1.128-41.44 25.269-32.856c3.016-3.912 3.895-9.069 2.372-13.771z" fill="#fed843"/><path d="m308.896 328.817c3.999-2.915 6.313-7.603 6.182-12.554l-1.128-41.44 25.269-32.856c3.018-3.911 3.896-9.067 2.373-13.77-1.538-4.717-5.288-8.364-10.02-9.756l-39.756-11.719-23.438-34.204c-2.798-4.072-7.588-6.108-12.378-6.108v150.513l39.053 13.887c4.621 1.649 9.798.915 13.843-1.993z" fill="#fabe2c"/></g></svg>