<svg id="Capa_1" enable-background="new 0 0 512 512" height="512" viewBox="0 0 512 512" width="512" xmlns="http://www.w3.org/2000/svg"><g><path d="m166 0c-74.559 0-136 61.441-136 136v196h136 136v-196c0-74.559-61.441-136-136-136z" fill="#704c55"/><path d="m302 136c0-74.559-61.441-136-136-136v332h136z" fill="#5b362a"/><path d="m256 272h-15l-15 30-15-30c-8.276 0-15-6.724-15-15v-23.027h-30-30v23.027c0 8.276-6.724 15-15 15l-15 30-15-30h-15c-41.353 0-76 33.647-76 75v90c0 8.291 6.709 15 15 15h45l31-30h75 75l31 30h45c8.291 0 15-6.709 15-15v-90c0-41.353-34.647-75-76-75z" fill="#ffbfab"/><path d="m272 452h45c8.291 0 15-6.709 15-15v-90c0-41.353-34.647-75-76-75h-15l-15 30-15-30c-8.276 0-15-6.724-15-15v-23.027h-30v188.027h75z" fill="#f89580"/><g><path d="m452 482h-15c-8.291 0-15-6.709-15-15s6.709-15 15-15h15c16.538 0 30-13.462 30-30s-13.462-30-30-30h-15c-8.291 0-15-6.709-15-15s6.709-15 15-15h15c33.091 0 60 26.909 60 60s-26.909 60-60 60z" fill="#c7cfe1"/><path d="m437 302h-60-60c-8.291 0-15 6.709-15 15v45l30 30h45 45l30-30v-45c0-8.291-6.709-15-15-15z" fill="#f0f7ff"/><path d="m452 362v-45c0-8.291-6.709-15-15-15h-60v90h45z" fill="#dfe7f4"/><path d="m377 362h-75v135c0 8.291 6.709 15 15 15h60 60c8.291 0 15-6.709 15-15v-135z" fill="#fed843"/><path d="m452 497v-135h-75v150h60c8.291 0 15-6.709 15-15z" fill="#fabe2c"/></g><path d="m91 272h30v90h-30z" fill="#59c36a"/><path d="m211 272h30v90h-30z" fill="#00a66c"/><path d="m226 136c-24.6 0-46.199-11.7-60-30-13.801 18.3-35.4 30-60 30-8.291 0-15 6.709-15 15v31c0 41.353 33.647 75 75 75s75-33.647 75-75v-31c0-8.291-6.709-15-15-15z" fill="#ffe1ba"/><path d="m241 182v-31c0-8.291-6.709-15-15-15-24.6 0-46.199-11.7-60-30v151c41.353 0 75-33.647 75-75z" fill="#ffbfab"/><path d="m211 332c-17.9 0-33.999 7.881-45 20.361-11.001-12.48-27.1-20.361-45-20.361-33.091 0-61 26.909-61 60v60h106 106v-60c0-33.091-27.909-60-61-60z" fill="#97de3d"/><path d="m272 392c0-33.091-27.909-60-61-60-17.9 0-33.999 7.881-45 20.361v99.639h106z" fill="#59c36a"/></g></svg>