<svg id="Capa_1" enable-background="new 0 0 512 512" height="512" viewBox="0 0 512 512" width="512" xmlns="http://www.w3.org/2000/svg"><g><g><path d="m346 0h-90-90c-74.443 0-135 60.557-135 135v226l31.578 30h193.422 190.263l34.737-30v-226c0-74.443-60.557-135-135-135zm-15 90h-75-75c-8.291 0-15-6.709-15-15s6.709-15 15-15h75 75c8.291 0 15 6.709 15 15s-6.709 15-15 15z" fill="#fed843"/><path d="m481 361v-226c0-74.443-60.557-135-135-135h-90v60h75c8.291 0 15 6.709 15 15s-6.709 15-15 15h-75v301h190.263z" fill="#fabe2c"/></g><path d="m331 60h-150c-8.291 0-15 6.709-15 15s6.709 15 15 15h150c8.291 0 15-6.709 15-15s-6.709-15-15-15z" fill="none"/><g><g><path d="m196 120h-30-30c-8.291 0-15 6.709-15 15v45l30 30h15 15l30-30v-45c0-8.291-6.709-15-15-15z" fill="#704c55"/><path d="m211 180v-45c0-8.291-6.709-15-15-15h-30v90h15z" fill="#5b362a"/></g><path d="m211 273.563v-93.563h-45-45v93.563c-17.461 6.197-30 22.881-30 42.437v121c0 8.291 6.709 15 15 15h60 60c8.291 0 15-6.709 15-15v-121c0-19.556-12.539-36.24-30-42.437z" fill="#97de3d"/><path d="m241 437v-121c0-19.556-12.539-36.24-30-42.437v-93.563h-45v272h60c8.291 0 15-6.709 15-15z" fill="#59c36a"/></g><g><g><path d="m376 120h-30-30c-8.291 0-15 6.709-15 15v45l30 30h15 15l30-30v-45c0-8.291-6.709-15-15-15z" fill="#704c55"/><path d="m391 180v-45c0-8.291-6.709-15-15-15h-30v90h15z" fill="#5b362a"/></g><path d="m391 273.563v-93.563h-45-45v93.563c-17.461 6.196-30 22.881-30 42.437v121c0 8.291 6.709 15 15 15h60 60c8.291 0 15-6.709 15-15v-121c0-19.556-12.539-36.24-30-42.437z" fill="#97de3d"/><path d="m421 437v-121c0-19.556-12.539-36.24-30-42.437v-93.563h-45v272h60c8.291 0 15-6.709 15-15z" fill="#59c36a"/></g><path d="m256 361h-225v136c0 8.291 6.709 15 15 15h210 210c8.291 0 15-6.709 15-15v-136z" fill="#fabe2c"/><path d="m481 497v-136h-225v151h210c8.291 0 15-6.709 15-15z" fill="#ff9100"/></g></svg>