<svg id="Capa_1" enable-background="new 0 0 512 512" height="512" viewBox="0 0 512 512" width="512" xmlns="http://www.w3.org/2000/svg"><g><path d="m154.188 357.812c-5.863-5.863-15.351-5.863-21.213 0l-128.578 128.578c-5.863 5.863-5.863 15.351 0 21.213 5.863 5.863 15.351 5.863 21.213 0l128.578-128.578c5.862-5.862 5.862-15.35 0-21.213z" fill="#fabe2c"/><path d="m25.61 507.603 128.578-128.578c5.863-5.863 5.863-15.351 0-21.213l-149.791 149.791c5.863 5.863 15.351 5.863 21.213 0z" fill="#ff9100"/><path d="m490.437 42.776 17.166-17.166c5.863-5.863 5.863-15.351 0-21.213-5.863-5.863-15.351-5.863-21.213 0l-17.062 17.062c-47.915 2.456-128.613 32.672-128.613 134.828 0 4.143 1.678 7.893 4.392 10.607s6.463 4.392 10.607 4.392c45.712-.001 131.075-27.242 134.723-128.51z" fill="#fed843"/><path d="m490.437 42.776 17.166-17.166c5.863-5.863 5.863-15.351 0-21.213l-162.496 162.496c2.714 2.714 6.463 4.392 10.607 4.392 45.712 0 131.075-27.241 134.723-128.509z" fill="#fabe2c"/><path d="m507.603 216.529-21.213-21.213c-46.838-46.838-96.3-48.241-135.008-34.698 13.543-38.708 12.14-88.17-34.698-135.008l-21.213-21.213c-5.863-5.863-15.351-5.863-21.213 0s-5.863 15.351 0 21.213l11.29 11.29c-26.9 33.752-51.457 95.391-9.261 156.387l-12.635 33.849 10.607 10.607 10.607 10.607 33.849-12.635c60.996 42.196 122.635 17.638 156.387-9.261l11.29 11.29c5.863 5.863 15.351 5.863 21.213 0 5.861-5.864 5.861-15.352-.002-21.215z" fill="#fabe2c"/><path d="m318.713 235.713c60.996 42.196 122.635 17.638 156.387-9.261l11.29 11.29c5.863 5.863 15.351 5.863 21.213 0 5.863-5.863 5.863-15.351 0-21.213l-21.213-21.213c-46.838-46.838-96.3-48.241-135.008-34.698l-77.124 77.124 10.607 10.607z" fill="#ff9100"/><path d="m443.963 280.169-21.213-21.213c-46.838-46.838-96.3-48.241-135.008-34.698 13.543-38.708 12.14-88.17-34.698-135.008l-21.213-21.213c-5.863-5.863-15.351-5.863-21.213 0-5.863 5.863-5.863 15.351 0 21.213l11.29 11.29c-26.9 33.752-51.457 95.391-9.261 156.387l-12.635 33.849 10.607 10.607 10.607 10.607 33.849-12.635c60.996 42.196 122.635 17.638 156.387-9.261l11.29 11.29c5.863 5.863 15.351 5.863 21.213 0 5.861-5.865 5.861-15.353-.002-21.215z" fill="#fed843"/><path d="m255.073 299.353c60.996 42.196 122.635 17.638 156.387-9.261l11.29 11.29c5.863 5.863 15.351 5.863 21.213 0 5.863-5.863 5.863-15.351 0-21.213l-21.213-21.213c-46.838-46.838-96.3-48.241-135.008-34.698l-77.124 77.124 10.607 10.607z" fill="#fabe2c"/><path d="m380.324 343.808-21.213-21.213c-46.838-46.838-96.3-48.241-135.008-34.698 13.543-38.708 12.14-88.17-34.698-135.008l-21.213-21.213c-5.863-5.863-15.351-5.863-21.213 0-5.863 5.863-5.863 15.351 0 21.213l11.29 11.29c-26.9 33.752-51.457 95.391-9.261 156.387l-12.635 33.849 10.607 10.607 10.607 10.607 33.849-12.635c60.996 42.196 122.635 17.638 156.387-9.261l11.29 11.29c5.863 5.863 15.351 5.863 21.213 0 5.86-5.864 5.86-15.352-.002-21.215z" fill="#fabe2c"/><path d="m191.434 362.993c60.996 42.196 122.635 17.638 156.387-9.261l11.29 11.29c5.863 5.863 15.351 5.863 21.213 0 5.863-5.863 5.863-15.351 0-21.213l-21.213-21.213c-46.838-46.838-96.3-48.241-135.008-34.698l-77.124 77.124 10.607 10.607z" fill="#ff9100"/><path d="m316.684 407.448-21.213-21.213c-46.838-46.838-96.3-48.241-135.008-34.698 13.543-38.708 12.14-88.17-34.698-135.008l-21.213-21.213c-5.863-5.863-15.351-5.863-21.213 0-5.863 5.863-5.863 15.351 0 21.213l11.29 11.29c-30.328 38.053-58.134 111.571 9.923 179.629s141.576 40.251 179.629 9.923l11.29 11.29c5.863 5.863 15.351 5.863 21.213 0 5.863-5.863 5.863-15.351 0-21.213z" fill="#fed843"/><path d="m284.181 417.371 11.29 11.29c5.863 5.863 15.351 5.863 21.213 0 5.863-5.863 5.863-15.351 0-21.213l-21.213-21.213c-46.838-46.838-96.3-48.241-135.008-34.698l-55.911 55.911c68.057 68.057 141.576 40.251 179.629 9.923z" fill="#fabe2c"/></g></svg>