<svg id="Capa_1" enable-background="new 0 0 512 512" height="512" viewBox="0 0 512 512" width="512" xmlns="http://www.w3.org/2000/svg"><g><g><path d="m301.021 212h-45-45l-30 30v90l30 30h45 45l30-30v-90z" fill="#fed843"/><path d="m331.021 332v-90l-30-30h-45v150h45z" fill="#fabe2c"/><path d="m286.021 0h-30-30c-8.291 0-15 6.709-15 15v45l30 31h15 15l30-31v-45c0-8.291-6.709-15-15-15z" fill="#704c55"/><path d="m301.021 60v-45c0-8.291-6.709-15-15-15h-30v91h15z" fill="#5b362a"/><path d="m181.021 332v135c0 8.291 6.709 15 15 15h60 60c8.291 0 15-6.709 15-15v-135h-75z" fill="#97de3d"/><path d="m301.021 154.563v-94.563h-45-45v94.563c-17.461 6.196-30 22.881-30 42.437v45h75 75v-45c0-19.556-12.539-36.24-30-42.437z" fill="#97de3d"/><g fill="#59c36a"><path d="m331.021 197c0-19.556-12.539-36.24-30-42.437v-94.563h-45v182h75z"/><path d="m331.021 467v-135h-75v150h60c8.291 0 15-6.709 15-15z"/></g></g><path d="m510.873 431.238c-.082-.203-.165-.405-.247-.606-9.391-22.705-35.726-33.248-58.539-24.124l-112.044 44.418c-1.877.361-3.702.712-5.579 1.075h-78.442-30c-8.291 0-15-6.709-15-15s6.709-15 15-15h30 75c16.569 0 30-13.433 30-30 0-16.569-13.431-30-30-30h-75-195v120.553l30 29.447h165 90c1.877-.363 3.702-.714 5.579-1.075l150.987-59.995c7.723-3.091 11.396-11.979 8.285-19.693z" fill="#ffe1ba"/><path d="m351.601 510.925 150.987-59.995c7.723-3.091 11.396-11.979 8.286-19.693-.082-.203-.165-.405-.247-.606-9.391-22.705-35.726-33.248-58.539-24.124l-112.044 44.418c-1.877.361-3.702.712-5.579 1.075h-78.442v60h90c1.875-.363 3.701-.714 5.578-1.075z" fill="#ffbfab"/><path d="m331.021 422c16.569 0 30-13.433 30-30 0-16.569-13.431-30-30-30h-75v60z" fill="#ffbfab"/><path d="m91.021 512h-76c-8.284 0-15-6.716-15-15v-150c0-8.284 6.716-15 15-15h61c8.284 0 15 6.716 15 15z" fill="#704c55"/></g></svg>