<svg id="Capa_1" enable-background="new 0 0 512 512" height="512" viewBox="0 0 512 512" width="512" xmlns="http://www.w3.org/2000/svg"><g><g><path d="m180 271h-45-45l-30 30v91l30 30h45 45l30-30v-91z" fill="#fed843"/><path d="m210 392v-91l-30-30h-45v151h45z" fill="#fabe2c"/><path d="m165 60h-30-30c-8.291 0-15 6.709-15 15v45l30 30h15 15l30-30v-45c0-8.291-6.709-15-15-15z" fill="#704c55"/><path d="m180 120v-45c0-8.291-6.709-15-15-15h-30v90h15z" fill="#5b362a"/><path d="m60 392v45c0 8.291 6.709 15 15 15h60 60c8.291 0 15-6.709 15-15v-45h-75z" fill="#97de3d"/><path d="m180 213.563v-93.563h-45-45v93.563c-17.461 6.197-30 22.881-30 42.437v45h75 75v-45c0-19.556-12.539-36.24-30-42.437z" fill="#97de3d"/><g fill="#59c36a"><path d="m210 256c0-19.556-12.539-36.24-30-42.437v-93.563h-45v181h75z"/><path d="m210 437v-45h-75v60h60c8.291 0 15-6.709 15-15z"/></g></g><g><path d="m422 271h-45-45l-30 30v91l30 30h45 45l30-30v-91z" fill="#fed843"/><path d="m452 392v-91l-30-30h-45v151h45z" fill="#fabe2c"/><path d="m407 60h-30-30c-8.291 0-15 6.709-15 15v45l30 30h15 15l30-30v-45c0-8.291-6.709-15-15-15z" fill="#704c55"/><path d="m422 120v-45c0-8.291-6.709-15-15-15h-30v90h15z" fill="#5b362a"/><path d="m302 392v45c0 8.291 6.709 15 15 15h60 60c8.291 0 15-6.709 15-15v-45h-75z" fill="#97de3d"/><path d="m422 213.563v-93.563h-45-45v93.563c-17.461 6.196-30 22.881-30 42.437v45h75 75v-45c0-19.556-12.539-36.24-30-42.437z" fill="#97de3d"/><g fill="#59c36a"><path d="m452 256c0-19.556-12.539-36.24-30-42.437v-93.563h-45v181h75z"/><path d="m452 437v-45h-75v60h60c8.291 0 15-6.709 15-15z"/></g></g><path d="m271 15v90c0 8.399-6.599 15-15 15s-15-6.601-15-15v-90c0-8.401 6.599-15 15-15s15 6.599 15 15z" fill="#dfe7f4"/><path d="m256 120v-120c8.401 0 15 6.599 15 15v90c0 8.399-6.599 15-15 15z" fill="#c7cfe1"/><path d="m301 135c0 8.399-6.599 15-15 15s-15-6.601-15-15c0-8.401-6.599-15-15-15s-15 6.599-15 15c0 8.399-6.599 15-15 15s-15-6.601-15-15c0-24.901 20.099-45 45-45s45 20.099 45 45z" fill="#dfe7f4"/><path d="m256 120v-30c24.901 0 45 20.099 45 45 0 8.399-6.599 15-15 15s-15-6.601-15-15c0-8.401-6.599-15-15-15z" fill="#c7cfe1"/><path d="m512 15c0 8.399-6.599 15-15 15h-482c-8.401 0-15-6.601-15-15 0-8.401 6.599-15 15-15h482c8.401 0 15 6.599 15 15z" fill="#704c55"/><path d="m512 15c0 8.399-6.599 15-15 15h-241v-30h241c8.401 0 15 6.599 15 15z" fill="#5b362a"/><path d="m45 422h422v90h-422z" fill="#f0f7ff"/><path d="m256 422h211v90h-211z" fill="#dfe7f4"/><path d="m45 452h422v30h-422z" fill="#704c55"/><path d="m256 452h211v30h-211z" fill="#5b362a"/><path d="m467 512c-24.814 0-45-20.186-45-45s20.186-45 45-45 45 20.186 45 45-20.186 45-45 45z" fill="#dfe7f4"/><path d="m45 512c-24.814 0-45-20.186-45-45s20.186-45 45-45 45 20.186 45 45-20.186 45-45 45z" fill="#f0f7ff"/><circle cx="467" cy="467" fill="#c7cfe1" r="15"/><circle cx="45" cy="467" fill="#dfe7f4" r="15"/></g></svg>