<svg id="Capa_1" enable-background="new 0 0 512 512" height="512" viewBox="0 0 512 512" width="512" xmlns="http://www.w3.org/2000/svg"><g><path d="m421 0h-330c-8.401 0-15 6.599-15 15v120h360v-120c0-8.401-6.599-15-15-15zm-105 75h-120c-8.401 0-15-6.601-15-15 0-8.401 6.599-15 15-15h120c8.401 0 15 6.599 15 15 0 8.399-6.599 15-15 15z" fill="#f0f7ff"/><path d="m436 15v120h-180v-60h60c8.401 0 15-6.601 15-15 0-8.401-6.599-15-15-15h-60v-45h165c8.401 0 15 6.599 15 15z" fill="#dfe7f4"/><path d="m76 150h360v121h-360z" fill="#f0f7ff"/><path d="m256 150h180v121h-180z" fill="#dfe7f4"/><path d="m76 271h360v120h-360z" fill="#f0f7ff"/><path d="m256 271h180v120h-180z" fill="#dfe7f4"/><path d="m436 391v106c0 8.399-6.599 15-15 15h-330c-8.401 0-15-6.601-15-15v-106z" fill="#f0f7ff"/><g fill="#dfe7f4"><path d="m256 391h180v106c0 8.399-6.599 15-15 15h-165z"/><path d="m466 391c0 16.5-13.5 30-30 30h-360c-16.5 0-30-13.5-30-30s13.5-30 30-30h360c16.5 0 30 13.5 30 30z"/><path d="m466 271c0 16.5-13.5 30-30 30h-360c-16.5 0-30-13.5-30-30s13.5-30 30-30h360c16.5 0 30 13.5 30 30z"/><path d="m466 150c0 16.5-13.5 30-30 30h-360c-16.5 0-30-13.5-30-30s13.5-30 30-30h360c16.5 0 30 13.5 30 30z"/></g><path d="m466 391c0 16.5-13.5 30-30 30h-180v-60h180c16.5 0 30 13.5 30 30z" fill="#c7cfe1"/><path d="m466 271c0 16.5-13.5 30-30 30h-180v-60h180c16.5 0 30 13.5 30 30z" fill="#c7cfe1"/><path d="m436 180h-180v-60h180c16.5 0 30 13.5 30 30s-13.5 30-30 30z" fill="#c7cfe1"/></g></svg>