<svg id="Capa_1" enable-background="new 0 0 512 512" height="512" viewBox="0 0 512 512" width="512" xmlns="http://www.w3.org/2000/svg"><g><g><g><path d="m443.495 32.015-25.981-15-25.981-15c-7.18-4.146-16.345-1.69-20.49 5.49l-22.5 38.971 10.981 40.981 12.99 7.5 12.99 7.5 40.981-10.981 22.5-38.971c4.146-7.18 1.691-16.345-5.49-20.49z" fill="#704c55"/><path d="m426.486 91.476 22.5-38.971c4.146-7.18 1.69-16.345-5.49-20.49l-25.981-15-45 77.942 12.99 7.5z" fill="#5b362a"/></g><path d="m380.204 171.639 46.282-80.162-38.971-22.5-38.971-22.5-46.282 80.162c-18.22-3.364-37.421 4.815-47.199 21.751l-90 155.885c-4.146 7.18-1.69 16.345 5.49 20.49l51.962 30 51.962 30c7.18 4.146 16.345 1.69 20.49-5.49l90-155.885c9.777-16.936 7.26-37.655-4.763-51.751z" fill="#97de3d"/><path d="m294.966 379.274 90-155.885c9.778-16.936 7.261-37.654-4.762-51.751l46.282-80.162-38.971-22.5-165 285.788 51.962 30c7.179 4.146 16.344 1.691 20.489-5.49z" fill="#59c36a"/></g><path d="m447.705 215.61c-2.856-3.545-7.148-5.61-11.704-5.61h-180-180c-4.556 0-8.848 2.065-11.704 5.61-2.842 3.56-3.926 8.203-2.944 12.642l60 272c1.523 6.87 7.617 11.748 14.648 11.748h120 120c7.031 0 13.124-4.878 14.648-11.748l60-272c.981-4.439-.103-9.082-2.944-12.642z" fill="#f0f7ff"/><path d="m390.649 500.252 60-272c.981-4.438-.103-9.082-2.944-12.642-2.856-3.545-7.148-5.61-11.704-5.61h-180v302h120c7.031 0 13.124-4.878 14.648-11.748z" fill="#dfe7f4"/><path d="m64.472 444.609c-5.303-6.372-4.438-15.835 1.919-21.138l180-150c6.387-5.303 15.82-4.424 21.138 1.919 5.303 6.372 4.438 15.835-1.919 21.138l-180 150c-6.409 5.308-15.841 4.422-21.138-1.919z" fill="#5b362a"/></g></svg>