<svg id="Capa_1" enable-background="new 0 0 512 512" height="512" viewBox="0 0 512 512" width="512" xmlns="http://www.w3.org/2000/svg"><g><path d="m256 6c-8.291 0-15 6.709-15 15v60c0 8.291 6.709 15 15 15s15-6.709 15-15v-60c0-8.291-6.709-15-15-15z" fill="#704c55"/><path d="m271 81v-60c0-8.291-6.709-15-15-15v90c8.291 0 15-6.709 15-15z" fill="#5b362a"/><path d="m256 422c-8.291 0-15 6.709-15 15v60c0 8.291 6.709 15 15 15s15-6.709 15-15v-60c0-8.291-6.709-15-15-15z" fill="#5b362a"/><path d="m271 497v-60c0-8.291-6.709-15-15-15v90c8.291 0 15-6.709 15-15z" fill="#38211a"/><path d="m121 392v105c0 8.291 6.709 15 15 15s15-6.709 15-15v-105z" fill="#5b362a"/><path d="m361 392v105c0 8.291 6.709 15 15 15s15-6.709 15-15v-105z" fill="#38211a"/><path d="m336.918 377h-80.918-80.918l-54.082 15 96.68 57.48c2.461 1.641 5.361 2.52 8.32 2.52h30 30c2.959 0 5.859-.879 8.32-2.52l96.68-57.48z" fill="#dfe7f4"/><path d="m294.32 449.48 96.68-57.48-54.082-15h-80.918v75h30c2.959 0 5.859-.879 8.32-2.52z" fill="#c7cfe1"/><path d="m316 60h-60-60c-41.422 0-75 34.578-75 76l34.42 15h100.58 96.473l38.527-15c0-41.422-33.578-76-75-76z" fill="#dfe7f4"/><path d="m391 136c0-41.422-33.578-76-75-76h-60v91h96.473z" fill="#c7cfe1"/><path d="m256 136h-135v256h135 135v-256z" fill="#f0f7ff"/><path d="m256 136h135v256h-135z" fill="#dfe7f4"/><path d="m286 482h-30-30c-8.291 0-15 6.709-15 15s6.709 15 15 15h30 30c8.291 0 15-6.709 15-15s-6.709-15-15-15z" fill="#704c55"/><path d="m301 497c0-8.291-6.709-15-15-15h-30v30h30c8.291 0 15-6.709 15-15z" fill="#5b362a"/><path d="m301 0h-45-45c-8.291 0-15 6.709-15 15s6.709 15 15 15h45 45c8.291 0 15-6.709 15-15s-6.709-15-15-15z" fill="#dfe7f4"/><path d="m316 15c0-8.291-6.709-15-15-15h-45v30h45c8.291 0 15-6.709 15-15z" fill="#c7cfe1"/><path d="m166 512h-60c-8.291 0-15-6.709-15-15s6.709-15 15-15h60c8.291 0 15 6.709 15 15s-6.709 15-15 15z" fill="#704c55"/><path d="m406 512h-60c-8.291 0-15-6.709-15-15s6.709-15 15-15h60c8.291 0 15 6.709 15 15s-6.709 15-15 15z" fill="#5b362a"/><path d="m256 181c-41.353 0-75 33.647-75 75l26.052 15h48.948 46.974l28.026-15c0-41.353-33.647-75-75-75z" fill="#fed843"/><path d="m331 256c0-41.353-33.647-75-75-75v90h46.974z" fill="#fabe2c"/><path d="m256 256h-75c0 41.353 33.647 75 75 75s75-33.647 75-75z" fill="#fabe2c"/><path d="m331 256h-75v75c41.353 0 75-33.647 75-75z" fill="#ff9100"/></g></svg>