<svg id="Capa_1" enable-background="new 0 0 512 512" height="512" viewBox="0 0 512 512" width="512" xmlns="http://www.w3.org/2000/svg"><g><path d="m309 60h-105-105l-25.507 31c6.839 35.281 20.577 65.925 34.12 95.757 16.846 37.104 32.754 72.144 35.508 115.254h60.879 60.879c2.754-43.11 18.662-78.149 35.508-115.254 13.542-29.832 27.281-60.476 34.12-95.757z" fill="#fed843"/><path d="m280.641 374.096c-8.496-13.682-13.813-29.15-15.381-44.736-.776-7.661-7.222-13.491-14.927-13.491 0 0 0 0-.015 0l-46.318.028-45.542.029c-7.427 0-13.74 5.464-14.824 12.817-2.417 16.421-8.042 32.109-16.362 45.498-8.804 14.547-13.272 30.28-13.272 46.759 0 49.426 40.056 90.612 90 90.94.205.002.396.06.601.06 48.457 0 89.399-42.221 89.399-91 0-16.479-4.468-32.212-13.271-46.758-.03-.058-.059-.102-.088-.146z" fill="#fed843"/><path d="m300.387 186.757c13.542-29.832 27.281-60.476 34.12-95.757l-25.507-31h-105v242.011h60.879c2.754-43.111 18.662-78.15 35.508-115.254z" fill="#fabe2c"/><path d="m294 421c0-16.479-4.468-32.212-13.271-46.758-.029-.059-.059-.103-.088-.146-8.496-13.682-13.813-29.15-15.381-44.736-.776-7.661-7.222-13.491-14.927-13.491 0 0 0 0-.015 0l-46.318.028v196.043c.205.002.396.06.601.06 48.457 0 89.399-42.221 89.399-91z" fill="#fabe2c"/><path d="m204 286h-120c-8.284 0-15 6.714-15 15v30c0 8.284 6.716 15 15 15h120 225v-60z" fill="#f0f7ff"/><path d="m204 286h225v60h-225z" fill="#dfe7f4"/><path d="m294 0c-11.567 0-22.02 4.508-30 11.704-7.98-7.196-18.433-11.704-30-11.704s-22.02 4.508-30 11.704c-7.98-7.196-18.433-11.704-30-11.704s-22.02 4.508-30 11.704c-7.98-7.196-18.433-11.704-30-11.704-24.814 0-45 20.186-45 45 0 15.967 1.745 31.82 4.493 46h85.507c8.284 0 15 6.714 15 15v45c0 16.567 13.431 30 30 30s30-13.433 30-30v-45c0-8.286 6.716-15 15-15h85.507c2.748-14.18 4.493-30.033 4.493-46 0-24.814-20.186-45-45-45z" fill="#f0f7ff"/><path d="m234 151v-45c0-8.286 6.716-15 15-15h85.507c2.748-14.18 4.493-30.033 4.493-46 0-24.814-20.186-45-45-45-11.567 0-22.02 4.508-30 11.704-7.98-7.196-18.433-11.704-30-11.704s-22.02 4.508-30 11.704v169.296c16.569 0 30-13.433 30-30z" fill="#dfe7f4"/><path d="m414 482h-210-136c-8.291 0-15 6.709-15 15s6.709 15 15 15h136 210c8.291 0 15-6.709 15-15s-6.709-15-15-15z" fill="#5b362a"/><g fill="#38211a"><path d="m429 497c0-8.291-6.709-15-15-15h-210v30h210c8.291 0 15-6.709 15-15z"/><path d="m444 512h-30c-8.291 0-15-6.709-15-15v-421c0-8.291 6.709-15 15-15h30c8.291 0 15 6.709 15 15v421c0 8.291-6.709 15-15 15z"/></g></g></svg>