<svg id="Capa_1" enable-background="new 0 0 511.999 511.999" height="512" viewBox="0 0 511.999 511.999" width="512" xmlns="http://www.w3.org/2000/svg"><g><path d="m507.605 89.164-42.429-42.429-42.429-42.429c-5.625-5.625-15.586-5.625-21.211 0l-106.055 106.055c-13.925 13.925-16.774 34.607-8.804 51.24l-82.705 82.705 53.028 10.605 53.027 10.605 40.283-40.283c16.609 7.994 38.002 4.42 51.226-8.804l106.069-106.055c5.86-5.858 5.856-15.354 0-21.21z" fill="#97de3d"/><path d="m350.311 225.234c16.609 7.994 38.002 4.42 51.226-8.804l106.069-106.055c5.859-5.859 5.856-15.355 0-21.211l-42.429-42.429-208.177 208.176 53.027 10.605z" fill="#59c36a"/><g><path d="m196 389.911c-8.291 0-15 6.709-15 15v92c0 8.291 6.709 15 15 15s15-6.709 15-15v-92c0-8.291-6.709-15-15-15z" fill="#dfe7f4"/><path d="m211 496.911v-92c0-8.291-6.709-15-15-15v122c8.291 0 15-6.709 15-15z" fill="#c7cfe1"/><path d="m227.874 250.37-31.874-100.492-15.703-49.508c-1.978-6.226-7.764-10.459-14.297-10.459h-90c-8.291 0-15 6.709-15 15s6.709 15 15 15h79.028l40.972 129.194 3.281 10.347c2.52 7.96 11.043 12.253 18.838 9.756 7.896-2.505 12.261-10.942 9.755-18.838z" fill="#704c55"/></g><path d="m151 254.911c0 41.421-33.579 75-75 75s-76-33.579-76-75 34.579-75 76-75 75 33.579 75 75z" fill="#97de3d"/><path d="m76 299.911c-24.853 0-46-20.147-46-45 0-24.853 21.147-45 46-45 24.853 0 45 20.147 45 45 0 24.853-20.147 45-45 45z" fill="#ffe1ba"/><path d="m316 239.911h-120-120c-8.291 0-15 6.709-15 15 0 24.111 8.35 47.52 23.35 65.728 16.685 21.006 40.415 34.482 66.65 38.218v16.055c0 24.814 20.186 45 45 45s45-20.186 45-45v-16.069c50.815-7.295 90-51.123 90-103.931 0-8.292-6.709-15.001-15-15.001z" fill="#fed843"/><path d="m241 374.911v-16.069c50.815-7.295 90-51.123 90-103.931 0-8.291-6.709-15-15-15h-120v180c24.814 0 45-20.185 45-45z" fill="#fabe2c"/><path d="m241 481.911h-45-45c-8.291 0-15 6.709-15 15s6.709 15 15 15h45 45c8.291 0 15-6.709 15-15s-6.709-15-15-15z" fill="#f0f7ff"/><path d="m256 496.911c0-8.291-6.709-15-15-15h-45v30h45c8.291 0 15-6.709 15-15z" fill="#dfe7f4"/></g></svg>