<svg id="Capa_1" enable-background="new 0 0 512 512" height="512" viewBox="0 0 512 512" width="512" xmlns="http://www.w3.org/2000/svg"><g><path d="m340.229 429.075 41.134-308.075-20.363-30h-105-105l-20.363 30 41.135 308.075c-12.671 8.115-20.772 22.31-20.772 37.925 0 24.814 20.186 45 45 45h60 60c24.814 0 45-20.186 45-45 0-15.615-8.101-29.81-20.771-37.925z" fill="#fed843"/><path d="m361 467c0-15.615-8.101-29.81-20.771-37.925l41.134-308.075-20.363-30h-105v421h60c24.814 0 45-20.186 45-45z" fill="#fabe2c"/><circle cx="256" cy="286" fill="#704c55" r="45"/><path d="m301 286c0-24.814-20.186-45-45-45v90c24.814 0 45-20.186 45-45z" fill="#5b362a"/><path d="m346 0c-11.567 0-22.02 4.508-30 11.704-7.98-7.196-18.433-11.704-30-11.704s-22.02 4.508-30 11.704c-7.98-7.196-18.433-11.704-30-11.704s-22.02 4.508-30 11.704c-7.98-7.196-18.433-11.704-30-11.704-24.814 0-45 20.186-45 45 0 2.036.132 4.058.396 6.006 3.312 24.728 6.339 48.331 9.241 69.994h80.363c8.284 0 15 6.714 15 15v45c0 16.567 13.431 30 30 30s30-13.433 30-30v-45c0-8.286 6.716-15 15-15h80.363c2.902-21.661 5.929-45.266 9.241-69.994.264-1.948.396-3.97.396-6.006 0-24.814-20.186-45-45-45z" fill="#f0f7ff"/><path d="m286 181v-45c0-8.286 6.716-15 15-15h80.363c2.902-21.661 5.929-45.266 9.241-69.994.264-1.948.396-3.97.396-6.006 0-24.814-20.186-45-45-45-11.567 0-22.02 4.508-30 11.704-7.98-7.196-18.433-11.704-30-11.704s-22.02 4.508-30 11.704v199.296c16.569 0 30-13.433 30-30z" fill="#dfe7f4"/></g></svg>