<svg id="Capa_1" enable-background="new 0 0 512 512" height="512" viewBox="0 0 512 512" width="512" xmlns="http://www.w3.org/2000/svg"><g><path d="m121 30h-45v211h45 45v-211z" fill="#59c36a"/><path d="m121 30h45v211h-45z" fill="#00a66c"/><path d="m121 181c-49.629 0-90 40.371-90 90v30l47.563 30h42.437 42.437l47.563-30v-30c0-49.629-40.371-90-90-90z" fill="#97de3d"/><path d="m121 391h-56.841l-33.159 30v76c0 8.291 6.709 15 15 15h75 75c8.291 0 15-6.709 15-15v-76l-34.579-30z" fill="#97de3d"/><path d="m211 301v-30c0-49.629-40.371-90-90-90v150h42.437z" fill="#59c36a"/><path d="m211 497v-76l-34.579-30h-55.421v121h75c8.291 0 15-6.709 15-15z" fill="#59c36a"/><path d="m151 0h-30-30c-16.569 0-30 13.431-30 30v15c0 8.284 6.716 15 15 15h45 45c8.284 0 15-6.716 15-15v-15c0-16.569-13.431-30-30-30z" fill="#704c55"/><path d="m181 45v-15c0-16.569-13.431-30-30-30h-30v60h45c8.284 0 15-6.716 15-15z" fill="#5b362a"/><path d="m163.437 301c-6.196-17.461-22.881-30-42.437-30s-36.24 12.539-42.437 30h-47.563v120h90 90v-120z" fill="#fed843"/><path d="m211 301h-47.563c-6.196-17.461-22.881-30-42.437-30v150h90z" fill="#fabe2c"/><path d="m401.605 245.395c-5.859-5.859-15.352-5.859-21.211 0-.751.751-10.466 10.937-19.395 28.599-7.795 15.421-15 36.48-15 62.704 0 8.291 6.709 15 15 15s15-6.709 15-15c0-43.198 24.374-68.818 25.649-70.137 5.817-5.859 5.802-15.322-.043-21.166z" fill="#97de3d"/><path d="m376 336.698c0-43.198 24.374-68.818 25.649-70.137 5.815-5.859 5.801-15.322-.044-21.167-5.859-5.859-15.352-5.859-21.211 0-.751.751-10.466 10.937-19.395 28.599v77.704c8.292.001 15.001-6.708 15.001-14.999z" fill="#59c36a"/><path d="m406 301c-16.421 0-32.183 5.405-45 15.176-12.817-9.771-28.579-15.176-45-15.176-41.353 0-75 33.647-75 75 0 38.423 22.31 136 75 136 16.348 0 32.065-7.5 45-21.094 12.935 13.594 28.652 21.094 45 21.094 52.69 0 75-97.577 75-136 0-41.353-33.647-75-75-75z" fill="#ff7b4a"/><path d="m481 376c0-41.353-33.647-75-75-75-16.421 0-32.183 5.405-45 15.176v174.73c12.935 13.594 28.652 21.094 45 21.094 52.69 0 75-97.577 75-136z" fill="#ff435b"/></g></svg>