<svg id="Capa_1" enable-background="new 0 0 512 512" height="512" viewBox="0 0 512 512" width="512" xmlns="http://www.w3.org/2000/svg"><g><path d="m211 0c-16.569 0-30 13.431-30 30 0-16.569-13.431-30-30-30s-30 13.431-30 30c0 16.567 13.431 30 30 30v127.522h60v-127.522c16.569 0 30-13.433 30-30 0-16.569-13.431-30-30-30z" fill="#dfe7f4"/><g><path d="m361.996 241h-61.992c-6.841 0-12.817-4.629-14.517-11.25l-27.1-105.956c-1.581-6.094-2.387-12.422-2.387-18.794 0-41.353 33.647-75 75-75s75 33.647 75 75c0 6.372-.806 12.7-2.388 18.809l-27.1 105.941c-1.699 6.621-7.675 11.25-14.516 11.25z" fill="#ff9100"/></g><g><path d="m224.564 153.721c-5.126-19.849-23.042-33.721-43.564-33.721s-38.438 13.872-43.564 33.721l-17.446 68.529h122.021z" fill="#fabe2c"/></g><path d="m435.648 229.252c.981-4.438-.103-9.082-2.944-12.642-2.856-3.545-7.148-5.61-11.704-5.61h-165-165c-4.556 0-8.848 2.065-11.704 5.61-2.842 3.56-3.926 8.203-2.944 12.642l25.944 116.748 33.228 14.526-26.561 15.474 27.389 124.252c1.522 6.87 7.617 11.748 14.648 11.748h105 105c7.031 0 13.124-4.878 14.648-11.748l27.389-124.252-26.748-14.637 33.415-15.363z" fill="#ff7b4a"/><path d="m375.648 500.252 27.389-124.252-26.748-14.637 33.415-15.363 25.944-116.748c.981-4.438-.103-9.082-2.944-12.642-2.856-3.545-7.148-5.61-11.704-5.61h-165v301h105c7.031 0 13.124-4.878 14.648-11.748z" fill="#ff435b"/><path d="m256 346h-153.704l6.667 30h147.037 147.037l6.667-30z" fill="#fed843"/><path d="m409.704 346h-153.704v30h147.037z" fill="#fabe2c"/><circle cx="256" cy="361" fill="#fed843" r="75"/><path d="m331 361c0-41.353-33.647-75-75-75v150c41.353 0 75-33.647 75-75z" fill="#fabe2c"/></g></svg>