<svg id="Capa_1" enable-background="new 0 0 512 512" height="512" viewBox="0 0 512 512" width="512" xmlns="http://www.w3.org/2000/svg"><g><path d="m437 151c-8.291 0-15-6.709-15-15v-91c0-8.291 6.709-15 15-15s15 6.709 15 15v91c0 8.291-6.709 15-15 15z" fill="#c7cfe1"/><path d="m165 151c-8.291 0-15-6.709-15-15v-91c0-8.291 6.709-15 15-15s15 6.709 15 15v91c0 8.291-6.709 15-15 15z" fill="#dfe7f4"/><path d="m512 45c0 8.399-6.599 15-15 15h-482c-8.401 0-15-6.601-15-15 0-8.401 6.599-15 15-15h482c8.401 0 15 6.599 15 15z" fill="#f0f7ff"/><path d="m512 45c0 8.399-6.599 15-15 15h-211v-30h211c8.401 0 15 6.599 15 15z" fill="#dfe7f4"/><path d="m507.499 185.499-60-60c-2.699-2.999-6.599-4.499-10.499-4.499h-272c-3.9 0-7.8 1.5-10.499 4.499l-60 60c-3.001 2.701-4.501 6.601-4.501 10.501v180c0 3.9 1.5 7.8 4.501 10.499l60 60c2.699 3.001 6.599 4.501 10.499 4.501h272c3.9 0 7.8-1.5 10.499-4.501l60-60c3.001-2.699 4.501-6.599 4.501-10.499v-180c0-3.9-1.5-7.8-4.501-10.501z" fill="#704c55"/><path d="m512 196v180c0 3.9-1.5 7.8-4.501 10.499l-60 60c-2.699 3.001-6.599 4.501-10.499 4.501h-151v-330h151c3.9 0 7.8 1.5 10.499 4.499l60 60c3.001 2.701 4.501 6.601 4.501 10.501z" fill="#5b362a"/><path d="m430.699 151h-259.398l-51.301 51.299v167.401l51.301 51.3h259.399l51.3-51.301v-167.4z" fill="#5b362a"/><path d="m430.699 151 51.301 51.299v167.4l-51.301 51.301h-144.699v-270z" fill="#38211a"/><path d="m45 512c-8.291 0-15-6.709-15-15v-482c0-8.291 6.709-15 15-15s15 6.709 15 15v482c0 8.291-6.709 15-15 15z" fill="#dfe7f4"/><path d="m75 512h-60c-8.291 0-15-6.709-15-15s6.709-15 15-15h60c8.291 0 15 6.709 15 15s-6.709 15-15 15z" fill="#5b362a"/><path d="m497 90c-8.291 0-15-6.709-15-15v-60c0-8.291 6.709-15 15-15s15 6.709 15 15v60c0 8.291-6.709 15-15 15z" fill="#c7cfe1"/><g><path d="m362 361h-15c-8.291 0-15-6.709-15-15s6.709-15 15-15h15c16.538 0 30-13.462 30-30s-13.462-30-30-30h-15c-8.291 0-15-6.709-15-15s6.709-15 15-15h15c33.091 0 60 26.909 60 60s-26.909 60-60 60z" fill="#c7cfe1"/><path d="m347 181h-61-61c-8.291 0-15 6.709-15 15v45l30 30h46 46l30-30v-45c0-8.291-6.709-15-15-15z" fill="#f0f7ff"/><path d="m362 241v-45c0-8.291-6.709-15-15-15h-61v90h46z" fill="#dfe7f4"/><path d="m286 241h-76v135c0 8.291 6.709 15 15 15h61 61c8.291 0 15-6.709 15-15v-135z" fill="#fed843"/><path d="m362 376v-135h-76v150h61c8.291 0 15-6.709 15-15z" fill="#fabe2c"/></g></g></svg>